<svg width="80" height="80" viewBox="0 0 80 80" fill="none" xmlns="http://www.w3.org/2000/svg">
<path d="M68.45 9.02H12.53C11.0609 9.02 9.87 10.2109 9.87 11.68V67.6C9.87 69.0691 11.0609 70.26 12.53 70.26H68.45C69.9191 70.26 71.11 69.0691 71.11 67.6V11.68C71.11 10.2109 69.9191 9.02 68.45 9.02Z" stroke="white" stroke-width="3.2" stroke-linecap="round" stroke-linejoin="round"/>
<path d="M40.49 27.67C43.4337 27.67 45.82 25.2837 45.82 22.34C45.82 19.3963 43.4337 17.01 40.49 17.01C37.5463 17.01 35.16 19.3963 35.16 22.34C35.16 25.2837 37.5463 27.67 40.49 27.67Z" stroke="white" stroke-width="3.2" stroke-linecap="round" stroke-linejoin="round"/>
<path d="M45.81 22.34H63.18" stroke="white" stroke-width="3.2" stroke-linecap="round" stroke-linejoin="round"/>
<path d="M17.92 22.34H35.16" stroke="white" stroke-width="3.2" stroke-linecap="round" stroke-linejoin="round"/>
<path d="M29.84 44.97C32.7837 44.97 35.17 42.5837 35.17 39.64C35.17 36.6963 32.7837 34.31 29.84 34.31C26.8963 34.31 24.51 36.6963 24.51 39.64C24.51 42.5837 26.8963 44.97 29.84 44.97Z" stroke="white" stroke-width="3.2" stroke-linecap="round" stroke-linejoin="round"/>
<path d="M35.16 39.64H63.18" stroke="white" stroke-width="3.2" stroke-linecap="round" stroke-linejoin="round"/>
<path d="M17.92 39.64H24.51" stroke="white" stroke-width="3.2" stroke-linecap="round" stroke-linejoin="round"/>
<path d="M35.17 62.28C38.1137 62.28 40.5 59.8937 40.5 56.95C40.5 54.0063 38.1137 51.62 35.17 51.62C32.2263 51.62 29.84 54.0063 29.84 56.95C29.84 59.8937 32.2263 62.28 35.17 62.28Z" stroke="white" stroke-width="3.2" stroke-linecap="round" stroke-linejoin="round"/>
<path d="M40.48 56.95H63.18" stroke="white" stroke-width="3.2" stroke-linecap="round" stroke-linejoin="round"/>
<path d="M17.92 56.95H29.84" stroke="white" stroke-width="3.2" stroke-linecap="round" stroke-linejoin="round"/>
</svg>
