<svg width="80" height="80" viewBox="0 0 80 80" fill="none" xmlns="http://www.w3.org/2000/svg">
<path fill-rule="evenodd" clip-rule="evenodd" d="M56.2303 62.363C62.5746 58.5536 67.4289 52.6931 69.9906 45.7505C72.5523 38.8079 72.668 31.1989 70.3185 24.1816C67.969 17.1643 63.2951 11.159 57.0695 7.15846C50.8439 3.15794 43.4395 1.40182 36.0804 2.18046C28.7213 2.95909 21.8483 6.22586 16.5978 11.4406C11.3472 16.6554 8.03354 23.5059 7.2046 30.8595C6.37565 38.213 8.0811 45.6293 12.0389 51.8821C15.9968 58.1349 21.9701 62.8498 28.9711 65.2472C29.7188 65.473 30.3701 65.9412 30.8222 66.5781C31.2744 67.215 31.5017 67.9842 31.4684 68.7645V75.7992L54.0495 63.7699L56.2303 62.363Z" stroke="white" stroke-width="4" stroke-miterlimit="10"/>
<path fill-rule="evenodd" clip-rule="evenodd" d="M48.4923 48.9621C51.6104 47.0789 54.0669 44.2739 55.5223 40.9346C56.9778 37.5953 57.3604 33.8864 56.6172 30.3203C55.934 27.0345 54.3101 24.0183 51.9432 21.639C49.5764 19.2597 46.5688 17.6199 43.2866 16.9194C39.1125 16.2796 34.8476 17.1631 31.2712 19.4084C27.6947 21.6538 25.0457 25.111 23.808 29.1484C22.5703 33.1858 22.8267 37.5338 24.5303 41.3977C26.2339 45.2617 29.2709 48.3837 33.0864 50.1931C33.7101 50.4653 34.2415 50.9126 34.616 51.4807C34.9906 52.0488 35.1924 52.7134 35.1968 53.3939V56.0319L47.3315 49.5952L48.4923 48.9621Z" stroke="white" stroke-width="4" stroke-miterlimit="10"/>
<path d="M40.2911 37.5822C42.661 37.5822 44.5822 35.661 44.5822 33.2911C44.5822 30.9212 42.661 29 40.2911 29C37.9212 29 36 30.9212 36 33.2911C36 35.661 37.9212 37.5822 40.2911 37.5822Z" fill="white"/>
</svg>
