<svg width="80" height="80" viewBox="0 0 80 80" fill="none" xmlns="http://www.w3.org/2000/svg">
<path d="M30.9054 70.773L36.322 63.8037C37.374 63.9625 38.4359 64.0469 39.4998 64.0564C40.5643 64.0649 41.6276 63.9803 42.6775 63.8037L48.0941 70.7008C48.3432 70.9879 48.6814 71.1832 49.0546 71.2552C49.4278 71.3272 49.8144 71.2719 50.1524 71.098L61.419 64.5981C61.7528 64.3955 62.0045 64.0817 62.13 63.7119C62.2555 63.342 62.2466 62.9398 62.1051 62.5759L58.8551 54.5232C60.1729 52.8365 61.2542 50.9776 62.0689 48.9983L70.6272 47.7344C71.0102 47.6979 71.365 47.5172 71.6198 47.2289C71.8746 46.9406 72.0103 46.5662 71.9994 46.1816V33.1818C71.9901 32.7951 71.8489 32.4232 71.5994 32.1277C71.3498 31.8322 71.0068 31.6308 70.6272 31.5568L62.0689 30.329C61.2183 28.3676 60.1396 26.5132 58.8551 24.8041L62.0689 16.7514C62.2034 16.3867 62.2087 15.987 62.0838 15.6189C61.9589 15.2508 61.7115 14.9368 61.3828 14.7292L50.1524 8.22928C49.8217 8.02638 49.4271 7.95462 49.0461 8.02814C48.6652 8.10165 48.3255 8.31512 48.0941 8.6265L42.6775 15.5236C40.5689 15.2346 38.4306 15.2346 36.322 15.5236L30.9054 8.6265C30.6602 8.33383 30.3217 8.13455 29.9468 8.0622C29.5719 7.98985 29.1836 8.04886 28.8471 8.22928L17.5806 14.7292C17.2412 14.9266 16.9848 15.2401 16.8587 15.6118C16.7326 15.9835 16.7453 16.3883 16.8945 16.7514L20.1444 24.8041C18.8189 26.4856 17.7369 28.3455 16.9306 30.329L8.37233 31.5568C7.98649 31.6175 7.63544 31.8152 7.38345 32.1136C7.13145 32.412 6.99537 32.7912 7.00012 33.1818V46.1816C6.99537 46.5722 7.13145 46.9514 7.38345 47.2498C7.63544 47.5482 7.98649 47.7459 8.37233 47.8066L16.9306 49.0344C17.7665 50.992 18.8463 52.8362 20.1444 54.5232L16.8945 62.6481C16.7624 63.0075 16.7585 63.4015 16.8836 63.7634C17.0086 64.1254 17.2548 64.433 17.5806 64.6342L28.8471 71.1341C29.1797 71.3187 29.5655 71.3835 29.9402 71.3178C30.3148 71.2521 30.6555 71.0598 30.9054 70.773Z" stroke="white" stroke-width="4" stroke-miterlimit="10"/>
<path d="M41.8833 29.7151L51.8499 39.6816L41.8833 49.6482" stroke="white" stroke-width="4" stroke-miterlimit="10" stroke-linecap="round"/>
<path d="M51.8493 39.6818H25.0552" stroke="white" stroke-width="4" stroke-miterlimit="10" stroke-linecap="round"/>
</svg>
