<svg width="81" height="80" viewBox="0 0 81 80" fill="none" xmlns="http://www.w3.org/2000/svg">
<path d="M41.24 69.02C57.3778 69.02 70.46 55.9378 70.46 39.8C70.46 23.6622 57.3778 10.58 41.24 10.58C25.1022 10.58 12.02 23.6622 12.02 39.8C12.02 55.9378 25.1022 69.02 41.24 69.02Z" stroke="white" stroke-width="3.03" stroke-miterlimit="10"/>
<path d="M54.07 36.13C56.5884 36.13 58.63 34.0884 58.63 31.57C58.63 29.0516 56.5884 27.01 54.07 27.01C51.5516 27.01 49.51 29.0516 49.51 31.57C49.51 34.0884 51.5516 36.13 54.07 36.13Z" stroke="white" stroke-width="3.03" stroke-miterlimit="10"/>
<path d="M28.41 36.13C30.9284 36.13 32.97 34.0884 32.97 31.57C32.97 29.0516 30.9284 27.01 28.41 27.01C25.8916 27.01 23.85 29.0516 23.85 31.57C23.85 34.0884 25.8916 36.13 28.41 36.13Z" stroke="white" stroke-width="3.03" stroke-miterlimit="10"/>
<path d="M54.99 44.79C53.1862 46.5972 51.0437 48.031 48.6852 49.0092C46.3267 49.9875 43.7984 50.491 41.245 50.491C38.6916 50.491 36.1633 49.9875 33.8048 49.0092C31.4463 48.031 29.3038 46.5972 27.5 44.79" stroke="white" stroke-width="3.03" stroke-miterlimit="10"/>
</svg>
