<svg width="161" height="72" xmlns="http://www.w3.org/2000/svg" xmlns:xlink="http://www.w3.org/1999/xlink"><defs><path id="a" d="M0.0843657061 0.101144772L127.261629 0.101144772 127.261629 25.3966081 0.0843657061 25.3966081z"/><path id="c" d="M0.00010042885 0.502545965L29.6266112 0.502545965 29.6266112 30.128655 0.00010042885 30.128655z"/></defs><g transform="translate(0 20)" fill="none" fill-rule="evenodd"><g transform="translate(32.953)"><mask id="b" fill="#fff"><use xlink:href="#a"/></mask><path d="M8.537 1.112c-4.368 0-6.055 3.137-6.055 6.171v1.82h-.894c-.694-.1-1.29.303-1.489 1.011-.099.71.298 1.315.993 1.517H2.482v12.441c0 .708.496 1.315 1.29 1.315h.1c.694 0 1.29-.506 1.29-1.213V11.43H8.04c.695-.1 1.092-.81.993-1.517-.1-.506-.496-.91-.993-1.012H5.162V7.08c0-1.618.595-3.54 3.474-3.54.695 0 1.191-.405 1.29-1.112-.099-.81-.695-1.316-1.39-1.316m10.125 7.485c-1.687-.1-3.375.709-4.367 2.124v-.707c0-.708-.596-1.316-1.29-1.316-.695 0-1.291.608-1.291 1.316V23.87c0 .708.496 1.316 1.29 1.316h.1c.694 0 1.29-.506 1.29-1.214v-7.889c0-3.237 1.687-5.16 4.368-5.16.694 0 1.19-.505 1.29-1.214v-.1c-.199-.506-.695-1.012-1.39-1.012m15.684 6.778c0-1.518-.398-3.035-1.29-4.35a6.269 6.269 0 0 0-5.361-2.528c-4.467 0-7.047 3.034-7.047 8.395 0 5.36 2.58 8.495 7.444 8.495 1.985.102 3.871-.607 5.36-2.023.297-.201.496-.506.397-.91 0-.607-.496-1.113-1.093-1.113-.296 0-.496.102-.693.305a6.1 6.1 0 0 1-3.872 1.415c-2.878 0-4.764-2.023-4.863-5.158h9.529c1.489-.203 1.489-1.62 1.489-2.528m-6.553-4.452c2.681 0 3.97 1.517 4.071 4.452h-8.636c.298-2.832 1.886-4.452 4.565-4.452m15.188 4.654c-1.985-.708-3.474-1.316-3.474-2.731 0-1.417 1.787-1.82 2.78-1.82a4.43 4.43 0 0 1 3.474 1.314c.496.506 1.19.506 1.687 0 .198-.203.397-.608.397-.911 0-.303-.1-.606-.298-.81-1.29-1.516-3.176-2.427-5.26-2.224-3.276 0-5.261 1.72-5.261 4.349 0 3.236 2.878 4.248 5.26 5.16 1.885.605 3.475 1.11 3.475 2.628 0 1.417-2.086 2.225-3.375 2.225-1.49.101-2.978-.506-4.07-1.617-.199-.202-.597-.406-.893-.406-.596 0-1.092.506-1.092 1.113 0 .304.099.608.298.81 1.488 1.718 3.572 2.73 5.856 2.73 3.772 0 5.956-1.82 5.956-4.653 0-2.83-2.978-4.248-5.46-5.157m15.386-7.08c-1.588-.102-3.177.606-4.27 1.92v-8.8c0-.706-.496-1.314-1.289-1.314h-.1c-.694 0-1.19.506-1.29 1.214v22.555c0 .708.497 1.315 1.29 1.315.696 0 1.291-.506 1.291-1.315v-8.495c0-3.034 1.39-4.552 4.268-4.552 2.879 0 3.771 1.315 3.771 4.35v8.697c0 .708.497 1.315 1.292 1.315h.099c.695 0 1.191-.506 1.29-1.213V14.87c-.099-4.25-2.184-6.372-6.352-6.372M79.806.203c-.695 0-1.191.506-1.29 1.214v8.9c-1.191-1.113-2.68-1.82-4.368-1.82-4.566 0-6.849 2.832-6.849 8.395s2.482 8.495 7.048 8.495c4.565 0 6.75-2.63 6.75-6.878V1.72c0-.911-.596-1.517-1.29-1.517m-5.46 22.757c-2.978 0-4.467-2.022-4.467-6.068 0-4.046 1.489-6.069 4.467-6.069 1.786.1 3.375 1.214 4.268 2.831v4.653c-.1 2.933-1.688 4.653-4.268 4.653m23.424-7.585c0-1.518-.396-3.035-1.289-4.35a6.267 6.267 0 0 0-5.36-2.528c-4.467 0-7.048 3.034-7.048 8.395 0 5.36 2.581 8.495 7.445 8.495 1.985.102 3.871-.607 5.36-2.023.298-.201.496-.506.396-.91 0-.607-.496-1.113-1.09-1.113-.299 0-.497.102-.696.305a6.1 6.1 0 0 1-3.87 1.415c-2.88 0-4.766-2.023-4.865-5.158h9.528c1.49-.203 1.49-1.62 1.49-2.528m-6.65-4.452c2.679 0 3.97 1.517 4.07 4.452h-8.636c.297-2.832 1.886-4.452 4.566-4.452m15.286 4.654c-1.985-.708-3.474-1.316-3.474-2.731 0-1.417 1.786-1.82 2.778-1.82a4.427 4.427 0 0 1 3.474 1.314c.2.203.597.404.895.404.594 0 1.09-.506 1.09-1.113 0-.302-.098-.606-.296-.808-1.29-1.517-3.178-2.428-5.261-2.226-3.276 0-5.26 1.72-5.26 4.35 0 3.236 2.877 4.247 5.26 5.159 1.886.605 3.474 1.111 3.474 2.628 0 1.417-2.084 2.226-3.376 2.226-1.489.1-2.978-.505-4.068-1.619-.199-.201-.596-.403-.895-.403-.594 0-1.09.505-1.09 1.111 0 .304.098.608.297.81 1.489 1.719 3.673 2.63 5.956 2.528 3.77 0 5.955-1.82 5.955-4.653 0-2.83-2.977-4.248-5.459-5.157m20.645 7.484l-5.855-7.686 5.26-4.35c.299-.202.497-.607.497-1.113 0-.708-.496-1.214-1.191-1.315h-.1c-.297 0-.694.101-.893.405l-7.644 6.27V1.417c0-.708-.594-1.316-1.29-1.316-.695 0-1.191.505-1.29 1.213V23.77c0 .709.595 1.314 1.29 1.314.696 0 1.192-.505 1.29-1.213v-5.461l1.788-1.417 5.856 7.586c.297.303.596.608 1.092.608.694 0 1.19-.506 1.29-1.214v-.102c.2-.202.1-.607-.1-.81" fill="#4D4D4D" mask="url(#b)"/></g><g transform="translate(0 5.65)"><mask id="d" fill="#fff"><use xlink:href="#c"/></mask><path d="M21.592 18.48c0 1.004-.703 2.008-1.707 2.208v.2a2.701 2.701 0 0 1-2.712 2.713h-2.109c-.2 0-.3-.202-.401-.403 0-.2.2-.3.401-.3h2.11c1.104 0 2.108-.904 2.108-2.109v-.101h-1.707v-5.222h2.611V13.96c-.2-2.712-2.31-4.822-4.92-4.921-2.913-.202-5.424 2.009-5.524 4.921v1.506h2.61v5.323h-1.907a2.229 2.229 0 0 1-2.21-2.21V13.96c0-3.716 3.013-6.83 6.83-6.83 3.816 0 6.829 3.013 6.829 6.83v4.52h-.302zM25.911.502H14.763C6.628.602 0 7.23 0 15.365c0 8.136 6.628 14.764 14.763 14.764h.1c8.135 0 14.764-6.628 14.764-14.764V4.117c0-2.009-1.708-3.614-3.716-3.614z" fill="#25C16F" mask="url(#d)"/></g></g></svg>