<svg width="104" height="72" xmlns="http://www.w3.org/2000/svg"><g transform="translate(0 4)" fill="none" fill-rule="evenodd"><path d="M65.561 0H37.463a4.683 4.683 0 0 0-4.683 4.683V32.78a4.683 4.683 0 0 0 4.683 4.683h28.098a4.683 4.683 0 0 0 4.683-4.683V4.683A4.684 4.684 0 0 0 65.56 0zm-9.054 6.868a1.25 1.25 0 0 1 2.498 0v16.684a1.25 1.25 0 0 1-2.498 0V6.868zm-6.244-.63a1.25 1.25 0 0 1 2.498 0v18.107a1.25 1.25 0 0 1-2.498 0V6.238zm-6.243.63a1.248 1.248 0 1 1 2.496 0v16.684a1.248 1.248 0 1 1-2.496 0V6.868zm-6.244 2.498a1.248 1.248 0 1 1 2.496 0v11.231c0 .69-.56 1.249-1.25 1.249s-1.246-.559-1.246-1.249V9.366zm27.036 19.048c-.192.166-4.819 4.048-13.301 4.048-8.483 0-13.108-3.88-13.301-4.048a1.249 1.249 0 0 1 1.621-1.898c.074.061 4.204 3.448 11.678 3.448 7.568 0 11.634-3.412 11.675-3.445a1.247 1.247 0 0 1 1.759.135 1.243 1.243 0 0 1-.131 1.76zm.437-7.815a1.247 1.247 0 1 1-2.496 0V9.366a1.248 1.248 0 1 1 2.496 0v11.233z" fill="#286EFA"/><g transform="translate(0 48.39)" fill="#000"><path d="M3.764 12.706c0 .617-.472 1.126-1.143 1.126a1.108 1.108 0 0 1-1.126-1.126V1.981c0-.617.472-1.126 1.143-1.126.654 0 1.126.51 1.126 1.126v10.725zM18.427 1.981v9.8c0 1.325-.707 2.068-1.832 2.068h-.09c-1.072 0-1.579-.617-2.033-1.525l-2.287-4.446-2.032-4.59.054 4.445.019 4.955c0 .616-.471 1.125-1.143 1.125a1.108 1.108 0 0 1-1.125-1.125v-9.8C7.958 1.672 8.665.82 9.9.82h.09c1.143 0 1.616.616 2.069 1.525l2.25 4.41 1.924 4.283-.055-4.103-.019-4.954c0-.617.472-1.126 1.143-1.126.654 0 1.125.508 1.125 1.126zm9.093 10.707c0 .616-.471 1.125-1.143 1.125a1.108 1.108 0 0 1-1.125-1.125v-9.71h-2.813c-.58 0-1.052-.435-1.052-1.07A1.03 1.03 0 0 1 22.439.855h7.894c.58 0 1.052.436 1.052 1.071a1.03 1.03 0 0 1-1.052 1.052H27.52v9.71zm6.825-.363V2.252c0-.944.526-1.47 1.487-1.432h6.533c.58 0 1.052.454 1.052 1.07a1.03 1.03 0 0 1-1.052 1.052h-5.771v3.122h5.1a.992.992 0 0 1 1.016 1.017.992.992 0 0 1-1.016 1.016h-5.1v3.593h5.77c.582 0 1.053.454 1.053 1.071a1.03 1.03 0 0 1-1.052 1.052h-6.587c-.943 0-1.47-.526-1.433-1.488z"/><path d="M56.303 12.343c.309.526.11 1.197-.526 1.525a1.2 1.2 0 0 1-1.597-.455L51.657 8.75h-2.396l.019 3.957c0 .617-.471 1.126-1.143 1.126a1.108 1.108 0 0 1-1.125-1.126V2.252c0-.944.526-1.47 1.488-1.432h4.3c2.958 0 4.193 1.923 4.193 3.883 0 1.87-1.09 3.249-2.958 3.612l2.268 4.028zM49.26 6.698h3.594c1.216 0 1.851-.78 1.851-1.887s-.671-1.869-1.869-1.869h-3.574v3.756h-.002z" fill-rule="nonzero"/><path d="M61.676 12.852c-1.361-1.216-1.978-3.122-1.978-5.517 0-2.413.6-4.3 1.942-5.5C62.475 1.11 63.6.62 65.233.62c1.433 0 2.541.326 3.375 1.035.726.58 1.252 1.397 1.561 2.54.164.6-.254 1.198-.944 1.326-.654.11-1.18-.309-1.38-.907-.219-.58-.51-.997-.853-1.288-.471-.416-1.052-.599-1.815-.599-.816 0-1.525.236-2.051.762-.762.762-1.09 2.123-1.09 3.848 0 1.706.31 3.067 1.107 3.829.526.526 1.216.761 2.015.761.835 0 1.47-.218 1.997-.707.271-.254.509-.58.671-.961.236-.562.726-.98 1.361-.835.635.145 1.035.761.835 1.36-.326.998-.89 1.797-1.651 2.342-.835.6-1.869.907-3.177.907-1.667-.003-2.72-.493-3.518-1.181z"/><path d="M72.727 7.333c0-4.064 1.67-6.715 5.609-6.715 3.902 0 5.59 2.577 5.59 6.715 0 4.193-1.706 6.716-5.59 6.716-3.957 0-5.609-2.523-5.609-6.716zm8.875 0c0-3.084-1.126-4.59-3.285-4.59-2.123 0-3.248 1.506-3.248 4.59 0 3.085 1.09 4.591 3.248 4.591 2.142.002 3.285-1.504 3.285-4.59z" fill-rule="nonzero"/><path d="M101.529 12.688c0 .616-.471 1.125-1.143 1.125a1.108 1.108 0 0 1-1.125-1.125V7.824l.055-4.736-1.579 4.809-1.597 4.736c-.271.835-.835 1.161-1.542 1.161-.744 0-1.288-.345-1.578-1.18l-1.633-4.719-1.506-4.736.055 4.665v4.864c0 .616-.472 1.125-1.143 1.125a1.108 1.108 0 0 1-1.125-1.125v-9.71c0-1.342.725-2.123 1.996-2.123 1.197 0 1.87.636 2.25 1.797l1.671 4.955 1.016 3.374 1.035-3.374 1.67-4.955C97.688 1.491 98.342.855 99.54.855c1.27 0 1.977.762 1.977 2.123l.013 9.71z"/></g></g></svg>