<?xml version="1.0" encoding="utf-8"?>
<!-- Generator: Adobe Illustrator 24.3.0, SVG Export Plug-In . SVG Version: 6.00 Build 0)  -->
<svg version="1.1" id="Layer_1" xmlns="http://www.w3.org/2000/svg" xmlns:xlink="http://www.w3.org/1999/xlink" x="0px" y="0px"
	 viewBox="0 0 160 72" style="enable-background:new 0 0 160 72;" xml:space="preserve">
<style type="text/css">
	.st0{fill-rule:evenodd;clip-rule:evenodd;fill:#0A0B09;}
	.st1{fill-rule:evenodd;clip-rule:evenodd;fill:#FFFFFE;}
	.st2{fill-rule:evenodd;clip-rule:evenodd;fill:#FF5551;}
</style>
<g id="Kustomer_Logo">
	<g id="Group" transform="translate(0.000000, 1.000000)">
		<path id="Fill-1" class="st0" d="M37.3,25.7c0-0.6,0.3-1,1-1h0.9c0.6,0,1,0.3,1,1v7.5h3l4.8-7.8c0.2-0.4,0.6-0.7,1.1-0.6h1.1
			c0.8,0,1,0.5,0.6,1.1l-5.3,8.4v0.1l5.6,9.4c0.4,0.6,0.1,1.1-0.6,1.1h-1.2c-0.5,0-0.9-0.2-1.1-0.6l-5-8.6h-3V44c0,0.6-0.3,1-1,1
			h-0.9c-0.6,0-1-0.3-1-1L37.3,25.7"/>
		<path id="Fill-2" class="st0" d="M53.5,31.4c0-0.6,0.3-1,1-1h0.9c0.6,0,0.9,0.3,0.9,1v7.7c0,2,0.4,3.6,2.7,3.6
			c3,0,4.7-2.6,4.7-5.4v-5.9c0-0.6,0.3-1,1-1h0.9c0.3,0,0.5,0,0.7,0.2c0.2,0.2,0.3,0.5,0.3,0.7V44c0,0.3,0,0.5-0.2,0.7
			c-0.2,0.2-0.5,0.3-0.7,0.2h-0.8c-0.6,0-1-0.3-1-1v-1.3c0-0.3,0-0.6,0.1-0.8h-0.1c-1,2.1-3.1,3.4-5.4,3.4c-3.3,0-4.9-1.7-4.9-5.6
			L53.5,31.4"/>
		<path id="Fill-3" class="st0" d="M69.7,42.4L70,42c0.4-0.5,0.8-0.5,1.3-0.2c1,0.7,2.3,1.1,3.5,1.2c1.4,0,2.5-0.7,2.5-1.9
			c0-2.8-7.5-1.9-7.5-6.8c0-2.7,2.4-4.2,5.3-4.2c1.4,0,2.8,0.4,4,1.1c0.5,0.3,0.6,0.8,0.3,1.3l-0.3,0.4c-0.3,0.5-0.7,0.6-1.3,0.3
			c-0.9-0.5-1.9-0.8-3-0.8c-1.4,0-2.4,0.6-2.4,1.8c0,2.9,7.5,1.9,7.5,6.8c0,2.5-2.1,4.3-5.2,4.3c-1.8,0-3.5-0.5-4.9-1.6
			C69.4,43.4,69.4,42.9,69.7,42.4"/>
		<path id="Fill-4" class="st0" d="M83.8,32.9h-1c-0.3,0-0.5-0.1-0.7-0.3c-0.2-0.2-0.3-0.4-0.2-0.7v-0.4c0-0.3,0-0.5,0.2-0.7
			c0.2-0.2,0.5-0.3,0.7-0.2h1v-3.2c0-0.3,0.1-0.5,0.2-0.7c0.2-0.2,0.5-0.3,0.7-0.2h0.8c0.6,0,1,0.3,1,1v3.2h2.5c0.3,0,0.5,0,0.7,0.2
			c0.2,0.2,0.3,0.5,0.2,0.7V32c0,0.3,0,0.5-0.2,0.7c-0.2,0.2-0.4,0.3-0.7,0.3h-2.6v6.4c0,2.7,1.7,3.2,2.7,3.3c0.8,0.1,1,0.3,1,1v0.6
			c0,0.6-0.4,1-1.1,1c-2.9,0-5.4-1.7-5.4-5.3L83.8,32.9"/>
		<path id="Fill-5" class="st0" d="M99.6,42.9c2.7,0,5-2.2,5-5.2c0-3-2.2-5.1-5-5.1c-2.7,0-5,2.1-5,5.1
			C94.6,40.7,96.9,42.9,99.6,42.9z M99.6,30.1c4.3,0,7.8,3.2,7.8,7.5s-3.5,7.6-7.8,7.6c-4.3,0-7.8-3.2-7.8-7.6S95.3,30.1,99.6,30.1
			L99.6,30.1z"/>
		<path id="Fill-6" class="st0" d="M110.5,31.4c0-0.3,0.1-0.5,0.2-0.7c0.2-0.2,0.5-0.3,0.7-0.2h0.8c0.6,0,1,0.3,1,1v1.3
			c0,0.3,0,0.6-0.1,0.8h0.1c0.7-1.7,2.7-3.4,5.1-3.4c2.4,0,3.8,1.1,4.3,3.3h0.1c1-2,2.9-3.2,5.1-3.3c3.3,0,4.8,1.9,4.8,5.6v8.3
			c0,0.6-0.3,1-1,1h-0.9c-0.3,0-0.5,0-0.7-0.2c-0.2-0.2-0.3-0.5-0.2-0.7v-7.8c0-2-0.4-3.6-2.6-3.6c-2.7,0-4.3,2.8-4.3,5.6V44
			c0,0.6-0.3,1-0.9,1h-0.9c-0.6,0-0.9-0.3-0.9-1v-7.7c0-1.9-0.3-3.6-2.5-3.6c-2.7,0-4.3,2.9-4.3,5.6V44c0,0.6-0.3,1-1,1h-0.9
			c-0.3,0-0.5,0-0.7-0.2c-0.2-0.2-0.3-0.5-0.2-0.7L110.5,31.4"/>
		<path id="Fill-7" class="st0" d="M146.1,36.1c-0.1-2.5-1.6-3.8-3.5-3.8c-2.1,0-3.8,1.4-4.2,3.8H146.1z M142.7,30.1
			c4,0,6.2,2.9,6.2,6.9c0,0.3-0.1,0.5-0.3,0.7c-0.2,0.2-0.4,0.3-0.7,0.3h-9.7c0.2,3.2,2.4,4.9,5,4.9c1.3,0,2.5-0.4,3.5-1.1
			c0.5-0.3,1-0.2,1.3,0.3l0.3,0.4c0.2,0.2,0.2,0.5,0.2,0.7c-0.1,0.2-0.2,0.5-0.5,0.6c-1.4,1-3.2,1.5-4.9,1.6c-4.6,0-7.7-3.3-7.7-7.6
			C135.4,33.1,138.6,30.1,142.7,30.1L142.7,30.1z"/>
		<g id="Group-13">
			<path id="Fill-8" class="st0" d="M152,31.4c0-0.3,0-0.5,0.2-0.7c0.2-0.2,0.5-0.3,0.7-0.2h0.8c0.6,0,1,0.3,1,1v1.7
				c0,0.4,0,0.7-0.1,1.1h0.1c0.6-1.9,2.2-3.8,4.5-3.8c0.6,0,0.9,0.3,0.9,1v0.8c0,0.6-0.4,1-1,1c-2.9,0-4.2,3-4.2,5.9v5
				c0,0.6-0.3,1-1,1h-0.9c-0.3,0-0.5-0.1-0.7-0.2c-0.2-0.2-0.3-0.5-0.2-0.7V31.4"/>
			<path id="Fill-10" class="st1" d="M19.1,48.7c4.7,0,8.5-3.8,8.5-8.5V29.7c0-4.7-3.8-8.5-8.5-8.5H8.5c-4.7,0-8.5,3.8-8.5,8.5v10.5
				c0,4.7,3.8,8.5,8.5,8.5H19.1"/>
			<path id="Fill-11" class="st0" d="M15.3,31.2V35c0,0.2,0.1,0.4,0.2,0.5c0.2,0.2,0.3,0.2,0.6,0.2h2.6c0.2,0,0.4-0.1,0.5-0.2
				c0.2-0.2,0.2-0.3,0.2-0.5v-2.6c0-0.2-0.1-0.4-0.2-0.5c-0.2-0.2-0.3-0.2-0.5-0.2h-1.8v-0.5c0-1,0.8-1.8,1.8-1.8
				c0.4,0,0.8-0.3,0.8-0.8s-0.3-0.8-0.8-0.8c-0.9,0-1.7,0.3-2.4,1C15.7,29.4,15.3,30.3,15.3,31.2L15.3,31.2z M8.2,31.2V35
				c0,0.2,0.1,0.4,0.2,0.5c0.2,0.2,0.3,0.2,0.6,0.2h2.6c0.2,0,0.4-0.1,0.6-0.2s0.2-0.3,0.2-0.5v-2.6c0-0.2-0.1-0.4-0.2-0.5
				c-0.2-0.2-0.3-0.2-0.6-0.2H9.8v-0.5c0-1,0.8-1.8,1.8-1.8c0.4,0,0.8-0.3,0.8-0.8s-0.3-0.8-0.8-0.8c-0.9,0-1.7,0.3-2.4,1
				C8.6,29.4,8.2,30.3,8.2,31.2L8.2,31.2z M9.1,39.3c-0.1,0-0.3,0.1-0.3,0.2c-0.1,0.1-0.1,0.3,0,0.4c0.1,0.1,1.7,2.9,5,2.9
				s4.9-2.8,5-2.9c0.1-0.1,0.1-0.3,0-0.4c-0.1-0.1-0.2-0.2-0.3-0.2H9.1L9.1,39.3z"/>
			<path id="Fill-12" class="st2" d="M8.5,21.3c-4.7,0-8.5,3.8-8.5,8.5v10.5c0,4.7,3.8,8.5,8.5,8.5h7.2L11,45.3H8.5
				c-2.8,0-5.1-2.2-5.1-5.1V29.7c0-2.8,2.3-5.1,5.1-5.1h10.6c2.8,0,5.1,2.2,5.1,5.1v10.5c0,2.8-2.3,5.1-5.1,5.1h-2v3.4h2
				c4.7,0,8.5-3.8,8.5-8.5V29.7c0-4.7-3.8-8.5-8.5-8.5H8.5"/>
		</g>
	</g>
</g>
</svg>
