<svg width="160" height="72" xmlns="http://www.w3.org/2000/svg" xmlns:xlink="http://www.w3.org/1999/xlink"><defs><path id="a" d="M0.376138108 0.165453811L10.571297 0.165453811 10.571297 14.5013774 0.376138108 14.5013774z"/></defs><g transform="translate(0 17)" fill="none" fill-rule="evenodd"><path d="M45.522 31.613h1.836c1.594 0 2.837-.45 3.725-1.348.889-.898 1.333-2.139 1.333-3.721 0-1.536-.438-2.718-1.313-3.545-.876-.826-2.114-1.24-3.716-1.24h-1.865v9.854zM43.09 19.679h4.405c2.5 0 4.374.578 5.624 1.734 1.25 1.155 1.876 2.853 1.876 5.092 0 2.103-.665 3.825-1.993 5.166-1.328 1.341-3.193 2.012-5.596 2.012H43.09V19.679z" fill="#757579"/><g transform="translate(55.243 23.478)"><mask id="b" fill="#fff"><use xlink:href="#a"/></mask><path d="M5.571 7.93L8.18.164h2.392l-4.13 10.792c-.47 1.217-1.032 2.112-1.69 2.685a3.388 3.388 0 0 1-2.295.86c-.287 0-.55-.015-.791-.044a4.81 4.81 0 0 1-.654-.123v-1.992c.182.084.368.148.556.19.19.043.382.064.577.064.403 0 .75-.104 1.04-.313.29-.208.525-.524.708-.946l.498-1.133L.376.165h2.656l2.5 7.764h.04z" fill="#757579" mask="url(#b)"/></g><path d="M75.746 27.54v6.143h-2.363v-5.606c0-.918-.154-1.601-.464-2.05-.31-.45-.806-.674-1.49-.674a2.08 2.08 0 0 0-1.645.752c-.433.501-.649 1.133-.649 1.895v5.683h-2.364v-10.04h2.364v1.33h.039c.371-.515.826-.9 1.367-1.159.54-.257 1.165-.385 1.875-.385 1.068 0 1.89.34 2.466 1.02.576.68.864 1.711.864 3.092m6.779 1.347c-1.042.123-1.776.326-2.202.605-.427.28-.64.664-.64 1.153 0 .416.125.749.376.996.25.248.63.37 1.138.37.736 0 1.318-.225 1.747-.678.43-.452.649-1.02.655-1.704v-.87l-1.074.128zm3.35-1.494c0 1.653.002 2.957.004 3.91.004.954.054 1.748.152 2.379h-2.354l-.117-1.075h-.04a2.854 2.854 0 0 1-1.176.924c-.485.211-1.095.317-1.83.317-.886 0-1.627-.269-2.222-.805-.596-.538-.894-1.262-.894-2.174 0-.976.382-1.76 1.148-2.348.764-.59 1.964-.985 3.598-1.187l1.435-.176c0-.663-.155-1.136-.468-1.415-.313-.28-.781-.423-1.406-.43a5.96 5.96 0 0 0-1.925.308c-.604.204-1.07.447-1.396.727V24.19c.326-.176.83-.353 1.514-.533a8.497 8.497 0 0 1 2.158-.268c1.25 0 2.2.345 2.847 1.035.648.69.972 1.68.972 2.969zm17.166.098v6.191h-2.374v-5.654c0-.931-.148-1.61-.444-2.037-.296-.426-.75-.639-1.362-.639-.665 0-1.193.24-1.587.722-.394.482-.59 1.101-.59 1.856v5.752H94.32v-5.83c0-.834-.159-1.458-.478-1.875-.32-.416-.798-.625-1.436-.625-.612 0-1.107.23-1.484.689-.378.458-.567 1.091-.567 1.898v5.743h-2.363v-10.04h2.363v1.348h.04a3.005 3.005 0 0 1 1.318-1.176c.547-.25 1.165-.376 1.855-.376.677 0 1.266.141 1.768.425.5.283.862.682 1.084 1.196a3.706 3.706 0 0 1 1.269-1.162c.534-.306 1.23-.46 2.09-.46 1.06 0 1.87.325 2.427.972.556.648.835 1.675.835 3.082m2.217 6.19h2.364V23.644h-2.364v10.04zm-.244-12.938c0-.391.142-.718.426-.982.282-.264.619-.395 1.01-.395.416 0 .761.135 1.035.405.273.27.41.594.41.972 0 .384-.14.706-.42.967-.28.26-.621.39-1.025.39-.403 0-.745-.132-1.02-.396a1.277 1.277 0 0 1-.416-.961zm9.777 11.22c.351 0 .738-.081 1.162-.244a4.873 4.873 0 0 0 1.172-.644v2.197a4.742 4.742 0 0 1-1.285.488 7.016 7.016 0 0 1-1.577.166c-1.478 0-2.68-.467-3.603-1.401-.925-.935-1.387-2.128-1.387-3.58 0-1.614.472-2.944 1.416-3.989.944-1.044 2.281-1.567 4.013-1.567.444 0 .891.057 1.343.171.453.114.812.246 1.08.395v2.266a4.852 4.852 0 0 0-1.118-.62 3.23 3.23 0 0 0-1.168-.22c-.93 0-1.683.303-2.255.908-.573.606-.86 1.423-.86 2.452 0 1.015.275 1.806.825 2.373.55.566 1.298.85 2.242.85m6.106-5.684c0 .339.107.604.322.796.214.192.69.434 1.426.728.944.377 1.606.802 1.987 1.274.381.471.571 1.043.571 1.714 0 .943-.362 1.702-1.089 2.275-.726.573-1.707.859-2.944.859-.417 0-.877-.05-1.381-.151-.505-.101-.933-.23-1.285-.386v-2.324c.43.3.892.537 1.387.713.495.176.944.263 1.348.263.534 0 .927-.074 1.181-.224.254-.15.381-.4.381-.752 0-.326-.132-.6-.395-.825-.264-.225-.764-.484-1.5-.777-.872-.364-1.491-.774-1.855-1.23-.364-.456-.547-1.035-.547-1.738 0-.905.36-1.65 1.08-2.232.72-.583 1.651-.874 2.797-.874.351 0 .746.04 1.181.117a5.19 5.19 0 0 1 1.094.303v2.246a5.012 5.012 0 0 0-1.094-.537 3.644 3.644 0 0 0-1.24-.225c-.449 0-.799.088-1.05.264a.835.835 0 0 0-.375.723m14.948.052v.04c1.01.117 1.806.471 2.392 1.064.586.592.879 1.338.879 2.236 0 1.276-.467 2.303-1.401 3.081-.935.778-2.205 1.167-3.813 1.167a8.515 8.515 0 0 1-1.92-.22c-.634-.146-1.114-.323-1.44-.532v-2.285c.424.34.936.61 1.539.816a5.474 5.474 0 0 0 1.772.307c.872 0 1.562-.207 2.07-.62.508-.413.761-.965.761-1.655 0-.749-.3-1.319-.898-1.71-.599-.39-1.454-.585-2.568-.585h-1.23v-1.934h1.162c.983 0 1.74-.182 2.27-.547.53-.364.796-.898.796-1.6 0-.645-.207-1.142-.62-1.49-.413-.348-1.001-.522-1.763-.522-.488 0-.964.082-1.426.249a4.88 4.88 0 0 0-1.337.746V20.21c.416-.234.923-.42 1.518-.561a8.088 8.088 0 0 1 1.85-.21c1.224 0 2.229.32 3.013.957.785.638 1.177 1.462 1.177 2.47 0 .906-.24 1.651-.723 2.237-.482.586-1.168.996-2.06 1.23m7.122 2.823c0 .8.227 1.472.683 2.016a2.178 2.178 0 0 0 1.748.815c.684 0 1.239-.236 1.666-.707.426-.472.639-1.118.639-1.939 0-.873-.208-1.531-.625-1.977-.416-.446-.983-.669-1.7-.669-.715 0-1.297.226-1.742.678-.446.453-.67 1.047-.67 1.783zm-.04-2.754c.261-.508.675-.899 1.241-1.172a4.233 4.233 0 0 1 1.865-.41c1.107 0 2.059.37 2.856 1.108.798.739 1.197 1.815 1.197 3.228 0 1.484-.458 2.65-1.373 3.495-.914.847-2.025 1.27-3.334 1.27-1.53 0-2.734-.568-3.613-1.704-.88-1.136-1.319-2.72-1.319-4.75 0-2.644.585-4.642 1.754-5.996 1.168-1.355 2.634-2.032 4.399-2.032.54 0 1.031.033 1.474.098.442.065.804.166 1.084.302v2.11a5.39 5.39 0 0 0-2.431-.606c-1.166 0-2.097.445-2.794 1.333-.696.889-1.05 2.131-1.064 3.726h.059zm16.865 2.91c0 1.393-.465 2.511-1.395 3.354-.932.844-2.211 1.265-3.838 1.265a7.186 7.186 0 0 1-1.924-.249c-.599-.166-1.074-.347-1.426-.543v-2.206a5.25 5.25 0 0 0 1.548.815 4.996 4.996 0 0 0 1.528.259c.931 0 1.678-.23 2.242-.693.563-.462.844-1.09.844-1.885 0-.78-.288-1.387-.864-1.816-.577-.43-1.405-.645-2.485-.645-.32 0-.738.015-1.255.044a16.49 16.49 0 0 0-1.07.083l.499-7.421h6.962v2.011h-5.01l-.234 3.408a14.437 14.437 0 0 1 1.231-.04c1.477 0 2.621.382 3.432 1.144.81.761 1.215 1.8 1.215 3.115M117.433 6.933h-3.52v8.105h-2.392V6.933h-1.68V5h1.68V3.603c0-1.055.344-1.919 1.031-2.593.686-.673 1.567-1.01 2.641-1.01.286 0 .54.015.761.044.222.03.417.073.587.132v2.04a2.413 2.413 0 0 0-.41-.165 2.114 2.114 0 0 0-.674-.098c-.495 0-.876.155-1.143.464-.267.31-.4.767-.4 1.371V5h3.52V2.744l2.373-.723V5h2.392v1.933h-2.392v4.697c0 .619.112 1.055.336 1.309.225.253.578.381 1.06.381.136 0 .301-.032.493-.098.191-.065.36-.143.503-.234v1.953c-.15.084-.4.163-.747.234a5.145 5.145 0 0 1-1.03.108c-.996 0-1.744-.266-2.241-.797-.499-.53-.748-1.329-.748-2.397V6.933zm-15.69 3.155c0 1.048.237 1.848.713 2.401.474.554 1.154.831 2.04.831.86 0 1.514-.277 1.963-.83.45-.554.674-1.374.674-2.461 0-1.08-.233-1.896-.699-2.447-.466-.55-1.118-.824-1.958-.824-.866 0-1.537.288-2.016.864-.479.576-.718 1.398-.718 2.466zm-2.461.078c0-1.66.468-2.975 1.406-3.945.937-.97 2.24-1.455 3.905-1.455 1.57 0 2.795.466 3.677 1.4.882.935 1.323 2.197 1.323 3.785 0 1.627-.468 2.923-1.406 3.886-.937.964-2.213 1.446-3.828 1.446-1.556 0-2.791-.458-3.706-1.373-.914-.914-1.371-2.162-1.371-3.744zm-5.322-2.53c0 .34.107.604.322.796.214.192.69.435 1.426.727.944.378 1.606.803 1.987 1.275.381.472.571 1.044.571 1.714 0 .943-.363 1.702-1.089 2.275s-1.707.86-2.944.86a7.11 7.11 0 0 1-1.382-.152c-.504-.1-.932-.229-1.284-.386v-2.323c.43.299.892.536 1.387.712.495.176.944.264 1.348.264.533 0 .928-.075 1.181-.224.254-.15.381-.4.381-.752 0-.326-.132-.601-.396-.826-.263-.225-.763-.484-1.499-.776-.872-.364-1.49-.775-1.855-1.23-.365-.456-.547-1.035-.547-1.74 0-.904.36-1.647 1.079-2.23.72-.583 1.652-.874 2.798-.874.351 0 .746.039 1.181.117.437.078.801.18 1.094.302v2.247a5.043 5.043 0 0 0-1.094-.538 3.644 3.644 0 0 0-1.24-.224c-.449 0-.799.088-1.049.264a.835.835 0 0 0-.376.723zm-11.367 2.452c0 1.048.238 1.848.713 2.401.475.554 1.155.831 2.04.831.86 0 1.515-.277 1.964-.83.449-.554.674-1.374.674-2.461 0-1.08-.233-1.896-.698-2.447-.466-.55-1.118-.824-1.958-.824-.867 0-1.538.288-2.017.864-.479.576-.718 1.398-.718 2.466zm-2.46.078c0-1.66.468-2.975 1.406-3.945.937-.97 2.24-1.455 3.906-1.455 1.569 0 2.794.466 3.676 1.4.882.935 1.323 2.197 1.323 3.785 0 1.627-.469 2.923-1.406 3.886-.937.964-2.213 1.446-3.827 1.446-1.557 0-2.792-.458-3.706-1.373-.915-.914-1.373-2.162-1.373-3.744zm-1.017-5.332c.188 0 .358.013.507.04.15.025.277.057.382.097v2.392a2.061 2.061 0 0 0-.542-.259 2.682 2.682 0 0 0-.864-.122c-.58 0-1.07.244-1.47.732-.4.488-.6 1.24-.6 2.256v5.068h-2.364V5h2.363v1.582h.04c.214-.547.54-.975.976-1.285.436-.308.96-.463 1.572-.463zm-9.062 8.486c.351 0 .739-.081 1.162-.244a4.883 4.883 0 0 0 1.172-.645v2.198a4.765 4.765 0 0 1-1.284.488 7.012 7.012 0 0 1-1.578.166c-1.477 0-2.678-.467-3.603-1.402-.925-.934-1.386-2.127-1.386-3.579 0-1.614.472-2.944 1.416-3.989.943-1.045 2.281-1.567 4.013-1.567.443 0 .89.057 1.343.17.452.115.812.247 1.079.396v2.266a4.842 4.842 0 0 0-1.119-.62c-.38-.147-.769-.22-1.167-.22-.93 0-1.683.303-2.255.909-.573.604-.86 1.421-.86 2.45 0 1.015.276 1.807.826 2.373.55.566 1.297.85 2.24.85zm-9.53 1.718h2.362V5h-2.363v10.038zM60.278 2.1c0-.39.141-.717.425-.98.283-.265.62-.397 1.01-.397.417 0 .763.136 1.035.406.275.27.41.594.41.971 0 .385-.139.707-.42.967-.279.26-.62.391-1.025.391-.403 0-.743-.132-1.02-.396a1.28 1.28 0 0 1-.415-.962zm-2.033-1.064v14.003h-2.432V4.063h-.04L51.43 15.038h-1.61L45.364 4.063h-.029v10.975H43.09V1.035h3.486l4.023 10.38h.059l4.248-10.38h3.34z" fill="#757579"/><path fill="#F05125" d="M0 16.8899614L15.7533297 16.8899614 15.7533297 1.13663177 0 1.13663177z"/><path fill="#7EBB42" d="M17.3926758 16.8899614L33.1460055 16.8899614 33.1460055 1.13663177 17.3926758 1.13663177z"/><path fill="#32A0DA" d="M0 34.2826373L15.7533297 34.2826373 15.7533297 18.5293076 0 18.5293076z"/><path fill="#FDB813" d="M17.3926758 34.2826373L33.1460055 34.2826373 33.1460055 18.5293076 17.3926758 18.5293076z"/></g></svg>