<svg width="160" height="64" xmlns="http://www.w3.org/2000/svg"><g fill="none"><path d="M56.426 34.667l-.958 2.682h-.054c-.254-.9-.557-1.785-.908-2.652l-5.128-12.865h-5.014v20.453h3.307V29.712c0-.777-.016-1.714-.05-2.788-.016-.542-.078-.978-.094-1.31h.073c.168.772.343 1.359.47 1.751l6.148 14.92h2.314l6.104-15.055c.138-.343.285-1.012.42-1.615h.072c-.08 1.49-.148 2.852-.156 3.673v12.997H66.5V21.832h-4.815l-5.258 12.835h-.001zm13.394 7.618h3.448V27.628H69.82v14.657zm1.76-20.886c-.569 0-1.063.194-1.47.575a1.9 1.9 0 0 0-.614 1.438c0 .562.204 1.036.607 1.411.403.372.9.561 1.477.561a2.13 2.13 0 0 0 1.482-.561c.409-.375.617-.849.617-1.41 0-.551-.202-1.029-.6-1.422-.398-.393-.902-.592-1.5-.592m13.895 6.082a9.572 9.572 0 0 0-1.926-.206c-1.582 0-2.993.338-4.194 1.008a6.777 6.777 0 0 0-2.764 2.843c-.631 1.213-.951 2.63-.951 4.211 0 1.386.311 2.656.924 3.777a6.48 6.48 0 0 0 2.58 2.608c1.097.608 2.365.916 3.769.916 1.638 0 3.038-.327 4.16-.973l.044-.026V38.48l-.145.106a6.467 6.467 0 0 1-1.686.877c-.61.213-1.165.322-1.652.322-1.353 0-2.44-.424-3.228-1.258-.79-.836-1.19-2.009-1.19-3.485 0-1.487.417-2.69 1.24-3.578.821-.887 1.91-1.336 3.234-1.336 1.134 0 2.238.384 3.282 1.142l.145.106v-3.329l-.046-.027c-.393-.22-.93-.4-1.596-.539m11.36-.108c-.865 0-1.64.279-2.304.827-.584.481-1.005 1.141-1.328 1.966h-.036v-2.538H89.72v14.657h3.447v-7.498c0-1.276.29-2.323.86-3.113.563-.781 1.312-1.178 2.23-1.178.31 0 .659.051 1.036.152.373.1.645.21.804.326l.145.105v-3.477l-.056-.024c-.321-.136-.775-.205-1.35-.205M108.94 38.56c-.647.813-1.622 1.224-2.897 1.224-1.266 0-2.265-.42-2.969-1.247-.708-.83-1.066-2.018-1.066-3.524 0-1.554.358-2.77 1.066-3.617.704-.84 1.694-1.268 2.942-1.268 1.21 0 2.173.408 2.864 1.213.693.808 1.045 2.015 1.045 3.587 0 1.592-.331 2.814-.984 3.632m-2.742-11.286c-2.417 0-4.337.709-5.706 2.105-1.367 1.396-2.06 3.33-2.06 5.747 0 2.295.676 4.14 2.011 5.486 1.336 1.344 3.153 2.027 5.401 2.027 2.343 0 4.225-.719 5.593-2.134 1.368-1.416 2.061-3.33 2.061-5.69 0-2.333-.65-4.19-1.933-5.527-1.284-1.336-3.09-2.014-5.367-2.014m14.947 6.41c-1.087-.437-1.784-.798-2.07-1.076-.276-.27-.418-.648-.418-1.13 0-.426.174-.766.531-1.043.358-.279.859-.42 1.485-.42.581 0 1.177.093 1.768.272a5.69 5.69 0 0 1 1.544.716l.143.097v-3.187l-.054-.024c-.4-.17-.927-.318-1.568-.437a9.62 9.62 0 0 0-1.72-.178c-1.645 0-3.004.42-4.044 1.25-1.044.834-1.575 1.928-1.575 3.253 0 .687.115 1.298.34 1.815.227.52.578.98 1.044 1.365.46.38 1.176.779 2.12 1.186.795.327 1.389.603 1.765.822.368.214.63.428.777.638.143.205.217.485.217.83 0 .985-.738 1.464-2.256 1.464-.562 0-1.204-.117-1.907-.349a7.143 7.143 0 0 1-1.954-.991l-.146-.104v3.361l.053.024c.494.228 1.117.421 1.852.572.733.152 1.398.23 1.975.23 1.785 0 3.222-.424 4.27-1.258 1.054-.839 1.59-1.959 1.59-3.33 0-.988-.289-1.835-.856-2.518-.564-.678-1.542-1.3-2.906-1.85m15.774 4.876c-.648.813-1.624 1.224-2.898 1.224-1.267 0-2.265-.42-2.969-1.247-.708-.83-1.066-2.018-1.066-3.524 0-1.554.358-2.77 1.066-3.617.704-.84 1.694-1.268 2.941-1.268 1.21 0 2.174.408 2.865 1.213.693.808 1.045 2.015 1.045 3.587 0 1.592-.333 2.814-.985 3.632m-2.741-11.286c-2.418 0-4.337.709-5.706 2.105-1.368 1.396-2.061 3.33-2.061 5.747 0 2.295.677 4.14 2.012 5.486 1.336 1.344 3.153 2.027 5.401 2.027 2.342 0 4.225-.719 5.593-2.134 1.368-1.416 2.06-3.33 2.06-5.69 0-2.333-.65-4.19-1.933-5.527-1.283-1.336-3.09-2.014-5.366-2.014m25.684 3.166v-2.812h-3.492v-4.372l-.118.036-3.279 1.003-.064.02v3.313h-5.174v-1.846c0-.86.193-1.517.571-1.954.377-.435.914-.654 1.599-.654a3.71 3.71 0 0 1 1.518.346l.129.057v-2.962l-.06-.021c-.48-.173-1.132-.26-1.94-.26-1.018 0-1.944.222-2.75.66a4.69 4.69 0 0 0-1.887 1.867c-.445.797-.67 1.718-.67 2.737v2.03h-2.43v2.811h2.43v11.846h3.49V30.439h5.174v7.528c0 3.1 1.462 4.672 4.346 4.672.473 0 .973-.057 1.482-.165.519-.112.871-.224 1.078-.342l.047-.028v-2.839l-.142.096a2.42 2.42 0 0 1-.702.306c-.278.078-.51.117-.69.117-.675 0-1.175-.181-1.485-.541-.314-.362-.473-.996-.473-1.884v-6.92h3.492v.001z" fill="#737373"/><path fill="#EF5124" d="M16.219 31.219H0v-16.22h16.219z"/><path fill="#7EBA42" d="M34.127 31.219H17.908v-16.22h16.22z"/><path fill="#339FD9" d="M16.219 49.133H0V32.914h16.219z"/><path fill="#FCB713" d="M34.127 49.133H17.908V32.914h16.22z"/></g></svg>