<svg width="119" height="64" xmlns="http://www.w3.org/2000/svg"><g transform="translate(0 16)"><path d="M0.0592105263 25.4618763L0.0592105263 0.585390789 4.42906105 0.585390789 4.42906105 25.4618763z"/><path d="M15.615 7.415c-5.603 0-9.48 4.308-9.48 9.238 0 5.503 4.218 9.294 9.523 9.294 5.036 0 9.405-3.721 9.405-9.306 0-4.696-3.62-9.226-9.448-9.226zm-.052 4.215c2.933 0 5.09 2.283 5.09 5.04 0 2.922-2.379 5.054-5.01 5.054-3.11 0-5.067-2.465-5.067-5.047 0-2.83 2.21-5.047 4.987-5.047zm20.48-4.215c-5.603 0-9.48 4.308-9.48 9.238 0 5.503 4.217 9.294 9.523 9.294 5.035 0 9.405-3.721 9.405-9.306 0-3.288-1.425-4.747-1.425-4.747l1.212-.416V7.932H39.07s-1.345-.517-3.029-.517zm-.052 4.215c2.932 0 5.09 2.283 5.09 5.04 0 2.922-2.38 5.054-5.01 5.054-3.11 0-5.067-2.465-5.067-5.047 0-2.83 2.209-5.047 4.987-5.047zm5.06 15.048a5.05 5.05 0 0 1-5.012 5.07c-3.11 0-5.074-2.488-5.074-5.07h-4.433c0 5.503 4.218 9.294 9.523 9.294 5.035 0 9.405-3.71 9.405-9.294h-4.41z"/><path d="M47.2409349 25.4618763L47.2409349 7.93180658 51.6107854 7.93180658 51.6107854 25.4618763z"/><path d="M55.8539739 25.4618763L55.8539739 11.8583408 53.5107209 11.8583408 53.5107209 7.93180658 55.8539739 7.93180658 55.8539739 2.54865789 60.2238257 2.54865789 60.2238257 7.93180658 62.6304091 7.93180658 62.6304091 11.8583408 60.2238257 11.8583408 60.2238257 25.4618763z"/><path d="M52.31 2.953a2.894 2.894 0 1 1-5.787 0 2.894 2.894 0 0 1 5.787 0zm20.145 4.45c-5.63 0-9.259 4.31-9.259 9.409 0 5.269 3.641 9.147 9.35 9.147 5.325 0 7.944-3.325 7.944-3.325l-2.921-2.925s-2.206 2.379-4.968 2.379c-2.302 0-4.143-1.285-4.785-3.642h13.616v-1.203c0-4.801-2.78-9.84-8.977-9.84zm-.139 3.847c2.013 0 4.072 1.077 4.532 3.65h-9.151c.362-1.808 1.944-3.65 4.62-3.65zm20.046 14.711c-5.645 0-9.492-4.3-9.492-9.369 0-5.231 4.348-9.192 9.474-9.192 4.956 0 7.492 3.498 7.492 3.498l-3.048 3.035s-1.766-2.282-4.465-2.282c-2.99 0-5.036 2.288-5.036 5.008 0 2.872 2.175 5.076 5.003 5.076 2.742 0 4.494-2.278 4.494-2.278l3.079 3.033s-2.512 3.471-7.5 3.471zm9.09-.486V.522h4.37V9.69s1.673-2.29 5.313-2.29c4.576 0 7.227 3.401 7.227 7.752v10.323h-4.37v-9.663c0-2.923-1.82-4.135-3.835-4.135-2.297 0-4.335 1.307-4.335 4.361v9.437h-4.37z"/></g></svg>