<svg xmlns="http://www.w3.org/2000/svg" width="137.16" height="64" viewBox="0 0 137.16 64"><defs><style>.a{fill:#b31f24;}.b{fill:#431512;}</style></defs><path class="a" d="M40.34,30.35c3.25-1.32,4.46-3.1,4.46-5.3,0-3.84-3.35-5.55-8.85-5.55H26.12A5.91,5.91,0,0,1,27.33,23v7.63c-2.89.58-5.48,1.07-7.92,1.66L14.78,19.5H8.67a6.25,6.25,0,0,1-.44,3L1.39,41.53A9.74,9.74,0,0,1,0,44.08H5A5.13,5.13,0,0,1,5.2,42a5.73,5.73,0,0,1,3.31-3.14,63,63,0,0,1,6.69-2.34l1.63,4.65a5.66,5.66,0,0,1,.3,2.89H24.2a9.76,9.76,0,0,1-1.43-2.55c-.17-.45-1.09-3-2.28-6.28,2.15-.52,4.41-1,6.84-1.43v6.77a6.41,6.41,0,0,1-1.21,3.48h9.34a23.67,23.67,0,0,0,3.91-.27c4-.7,6.89-2.75,6.89-7.11,0-3.34-2.23-5.33-5.92-6.34M8.76,35.43A7.07,7.07,0,0,0,7,36.61c1.35-3.93,3.2-9.33,4.1-11.88l3.08,8.81A40.61,40.61,0,0,0,8.76,35.43Zm24-12.86c1-.06,1.32-.06,1.95-.06,3,0,4.42,1.27,4.42,3s-1.12,2.75-3,3.31c-.78.23-2.09.5-3.38.73ZM35.05,41H32.8V32.83c.84-.19,2.18-.43,3.07-.53,2.72.63,4.72,1.75,4.72,4.53,0,3.24-2.38,4.19-5.54,4.19"/><path class="b" d="M48.79,44.08A6.8,6.8,0,0,0,50,40.6V23a6.85,6.85,0,0,0-1.21-3.48h7.9A6.85,6.85,0,0,0,55.48,23V40.6a6.8,6.8,0,0,0,1.21,3.48Z"/><path class="b" d="M137.16,26.78h-5.29a3.67,3.67,0,0,1-.2,3.07L128.25,39l-3.54-9.13a3.63,3.63,0,0,1-.2-3.07h-6.83a10.39,10.39,0,0,1,1.87,3.07l5.87,14.23H130a10,10,0,0,1,.63-2.47h0l4.73-11.76a10.23,10.23,0,0,1,1.81-3.07"/><path class="b" d="M118.38,35.93c.34-3.61-.66-9.91-8.65-9.91-6.52,0-8.92,4.54-8.92,9,0,5.64,3.07,9.51,10.42,9.51a13.46,13.46,0,0,0,6.83-1.75l-1.47-3.26a11,11,0,0,1-5,1.32c-3.28,0-5.3-1.15-5.74-4.4H113a17.8,17.8,0,0,0,5.41-.48m-12.49-2.49c.32-2.79,1.57-4.21,3.84-4.21s3.52,1.82,3.62,4.18c0,0-1,0-2.39,0Z"/><path class="b" d="M70.19,44.08h7A6,6,0,0,1,76.12,41V31.77c0-3.31-1.78-5.34-5.54-5.34a8.74,8.74,0,0,0-5.83,2.39v-2H58.81a6.08,6.08,0,0,1,1.06,3.07V41a6.05,6.05,0,0,1-1.06,3.08h7A6,6,0,0,1,64.75,41V31.77a5,5,0,0,1,3.58-1.6c2.14,0,2.93,1.19,2.93,3V41a6.06,6.06,0,0,1-1.07,3.09"/><path class="b" d="M88.32,32.48c3.45,0,5.34,1.69,5.34,4.41,0,2.44-1.46,4.22-5.42,4.22H85.87V32.48Zm-.52-10c3,0,4.42,1.17,4.42,3.39S91,29.4,88.05,29.4c-.56,0-1.58,0-2.18,0V22.49Zm.63,21.59a23.38,23.38,0,0,0,4-.27c3.94-.68,6.86-2.7,6.86-7.05,0-3.49-2.23-5.3-5.74-6.31,3.14-1.19,4.19-2.9,4.19-5.13,0-3.84-3.12-5.81-8.76-5.81H79.53A6.73,6.73,0,0,1,80.41,23V40.6a6.66,6.66,0,0,1-.88,3.48Z"/></svg>