<?xml version="1.0" encoding="utf-8"?>
<!-- Generator: Adobe Illustrator 24.3.0, SVG Export Plug-In . SVG Version: 6.00 Build 0)  -->
<svg version="1.1"
	 id="svg24499" inkscape:version="0.44" sodipodi:docbase="R:\Logos" sodipodi:docname="Panasonic-Logo.svg" sodipodi:version="0.32" xmlns:cc="http://web.resource.org/cc/" xmlns:dc="http://purl.org/dc/elements/1.1/" xmlns:inkscape="http://www.inkscape.org/namespaces/inkscape" xmlns:rdf="http://www.w3.org/1999/02/22-rdf-syntax-ns#" xmlns:sodipodi="http://sodipodi.sourceforge.net/DTD/sodipodi-0.dtd" xmlns:svg="http://www.w3.org/2000/svg"
	 xmlns="http://www.w3.org/2000/svg" xmlns:xlink="http://www.w3.org/1999/xlink" x="0px" y="0px" viewBox="0 0 126 64"
	 style="enable-background:new 0 0 126 64;" xml:space="preserve">
<style type="text/css">
	.st0{fill:#0041C0;}
</style>
<g id="layer1" transform="translate(374.9204,-408.833)" inkscape:groupmode="layer" inkscape:label="Ebene 1">
	<g id="g24516" transform="translate(-1.494141e-6,7.088289)">
		<path id="path23367" class="st0" d="M-374.9,443.2v-19.3h8.1c2.7,0,5.4,0.2,7.2,2.6c0.5,0.7,1.2,2,1.2,4.1c0,2.7-1.2,4.3-2,5.1
			c-1.4,1.4-3.4,1.6-5.3,1.7h-3.5v5.8H-374.9z M-367,432.9c1,0,2-0.1,2.7-0.8c0.2-0.2,0.5-0.6,0.5-1.3c0-0.7-0.3-1.1-0.5-1.3
			c-0.8-0.9-2.2-0.8-3.3-0.8h-1.6v4.1H-367"/>
		<path id="path23369" class="st0" d="M-349.1,443.3l-0.2-1.3c-0.7,0.6-2.1,1.7-4.5,1.7c-0.4,0-2.2-0.1-3.5-1.1
			c-0.5-0.5-1.5-1.6-1.5-3.4c0-0.4,0.1-1.2,0.8-2.1c1-1.3,2.2-1.7,3.7-2.1l2.6-0.3c0.3-0.1,0.6-0.2,1-0.2c0.1,0,0.5-0.1,0.7-0.2
			c0.2-0.2,0.4-0.8,0.4-1.1c0-0.5-0.7-1-1.8-1c-1,0-1.4,0.4-1.7,0.7c-0.1,0.2-0.2,0.4-0.2,0.8l-4.9,0c0.2-1.1,0.4-2,1.2-3
			c1-1.1,2.6-1.8,5.7-1.8c0.6,0,3-0.2,4.7,0.9c0.7,0.5,1.2,1,1.5,1.8c0.5,1.1,0.4,2.5,0.4,3.7v3.9c0,2.4,0.1,2.8,0.6,4.2H-349.1z
			 M-349.6,437.1c-0.7,0.2-1.4,0.5-2.2,0.7l-0.5,0.2c-0.3,0.1-1.1,0.2-1.1,1.3c0,0.5,0.3,1.3,1.3,1.3c0.1,0,0.8-0.1,1.1-0.2
			c1-0.3,1-0.9,1.3-1.2V437.1"/>
		<path id="path23371" class="st0" d="M-334.4,443.3v-6.8c0,0.8,0.2-2.7-0.5-3c-0.2-0.1-0.7-0.4-1.3-0.3c-0.6,0-1.3,0.3-1.6,0.9
			c-0.3,0.7-0.4,1.3-0.3,2.8v6.6h-5.3v-14.2h5l0.1,1.6c0.7-0.8,1.5-1.9,4.4-1.9c2.1,0,3.8,0.7,4.4,2.9c0.1,0.5,0.2,1.1,0.3,2.2v9.3
			H-334.4"/>
		<path id="path23373" class="st0" d="M-305.1,433.2c-0.1-0.5-0.5-1.4-1.8-1.4c-0.6,0-1,0.2-1.2,0.3c-0.1,0.1-0.3,0.4-0.3,0.8
			c0,0.1,0.1,0.4,0.4,0.6c0.2,0.1,0.7,0.2,1.2,0.3l2.1,0.5c1.5,0.4,2.7,0.6,3.8,1.7c0.5,0.5,0.8,1.1,0.9,1.4
			c0.2,0.7,0.1,1.3,0.1,1.5c0,1.7-0.8,2.7-1.3,3.1c-1,0.9-2.6,1.6-5.5,1.6c-2.4,0-3.9-0.6-4.8-1.2c-1.9-1.1-2-3.2-2.1-3.8l5,0
			c0,0.5,0.1,0.8,0.5,1.2c0.3,0.3,0.7,0.5,1.6,0.5c1.1,0,1.7-0.5,1.7-1c0-0.1,0-0.4-0.1-0.6c-0.2-0.4-0.9-0.6-1.9-0.8
			c0,0-2.9-0.6-3.1-0.7c-0.7-0.3-3.3-0.9-3.3-3.9c0-1.7,0.9-2.6,1.3-3c0.9-0.8,2.4-1.5,5-1.5c0.6,0,3.1,0,4.9,1.2
			c0.5,0.3,0.9,0.8,1.2,1.3c0.4,0.7,0.5,1.6,0.6,1.9H-305.1"/>
		<path id="path23381" class="st0" d="M-287,441.7c-0.9,0.9-2.6,2-5.5,2c-0.9,0-3.5-0.1-5.4-2.3c-0.8-0.9-1.7-2.5-1.7-5.3
			c0-0.5,0-1.6,0.5-2.8c1-3.1,3.9-4.5,6.9-4.5c0.8,0,3.3,0.1,5.1,1.9c0.9,0.9,2,2.6,2,5.6C-285,437-285.1,439.8-287,441.7z
			 M-290.9,433.1c-0.5-0.4-1.2-0.5-1.4-0.5c-0.6,0-1,0.4-1.2,0.5c-0.6,0.5-1.1,1.3-1.1,3.1c0,1.4,0.3,3.7,2.3,3.7
			c0.6,0,1.1-0.1,1.4-0.6c0.5-0.5,1-1.4,0.9-3.1C-289.9,436.1-289.9,434.1-290.9,433.1"/>
		<path id="path23383" class="st0" d="M-269.1,429.1h5.2v14.2h-5.2V429.1z M-269.1,423.8h5.2v3.7h-5.2V423.8z"/>
		<path id="path23385" class="st0" d="M-253.9,434.5c-0.4-1.7-1.2-1.8-2.1-1.8c-0.8,0-1,0.3-1.2,0.5c-0.7,0.6-0.9,1.3-0.9,3
			c0,0.1-0.1,2.4,1.2,3.3c0.4,0.2,0.5,0.3,1,0.3c0.1,0,0.6,0,1-0.2c0.5-0.2,1-0.7,1.1-1.9l5,0c0,0.3-0.2,1.5-0.7,2.4
			c-1.2,2.5-3.8,3.5-6.3,3.5c-1,0-1.8-0.2-2.2-0.2c-2-0.5-3.8-1.9-4.6-3.9c-0.2-0.6-0.5-1.5-0.5-3.1c0-0.6,0-2.3,0.9-3.9
			c0.1-0.3,0.5-0.9,1.1-1.5c1.9-1.9,4.7-1.9,5.4-1.9c2.6,0,4.3,1,5.1,1.7c0.2,0.2,0.7,0.9,1.1,1.8c0.3,0.7,0.5,1.4,0.6,2.1H-253.9"
			/>
		<path id="path23387" class="st0" d="M-314.3,439.1v-3.8c0-1.2,0-2.8-0.5-4c-0.3-0.7-0.6-1.1-1.3-1.6c-1.8-1.2-4.3-1-4.9-1
			c-3.1,0-4.7,0.8-5.7,1.9c-0.8,0.9-1,1.8-1.2,3h4.9c0-0.4,0.1-0.6,0.2-0.8c0.3-0.4,0.7-0.8,1.6-0.8c1.1,0,1.8,0.6,1.8,1.1
			c0,0.3,0,0.8-0.2,1c-0.2,0.2-0.8,0.4-0.9,0.4c-0.2,0-0.6,0.1-1,0.2l-2.6,0.3c-1.5,0.4-2.7,0.7-3.7,2c-0.7,0.9-0.7,1.8-0.7,2.2
			c0,1.9,0.8,2.9,1.3,3.4c1.2,1,3,1,3.5,1c2.4,0,3.7-1.1,4.4-1.6l0.2,1.3h5.3C-314,442.4-314.3,442-314.3,439.1z M-320.7,440.4
			c-0.3,0.1-0.9,0.1-1.1,0.1c-0.9-0.1-1.3-0.9-1.3-1.3c0-1,0.8-1.2,1.1-1.3l0.6-0.2c0.7-0.2,1.4-0.5,2.1-0.7l0,1.8
			C-319.5,439.3-319.8,440.2-320.7,440.4"/>
		<path id="path23389" class="st0" d="M-275.3,443.3v-6.9c0,0.8,0.2-2.6-0.5-3c-0.2-0.1-0.7-0.4-1.2-0.3c-0.6,0-1.4,0.3-1.6,0.9
			c-0.3,0.7-0.4,1.2-0.4,2.6l0,6.8l-5.1,0v-14.2h5l0.1,1.6c0.7-0.8,1.5-1.9,4.4-1.9c2.1,0,3.8,0.9,4.4,3.1c0.1,0.5,0.2,0.9,0.2,2
			v9.3L-275.3,443.3"/>
	</g>
</g>
</svg>
