<svg width="80" height="64" xmlns="http://www.w3.org/2000/svg"><g><path d="M58.158 26.286c6.318-2.78 10.443-6.953 10.668-11.584 0 0-1.668-1.285-7.053-3.266-4.73-1.74-8.337-2.139-8.337-2.139l.016 10.318c0 1.541-.619 3.115-1.787 4.508-3.575-.863-7.525-1.347-11.669-1.349h-.003c-4.146.002-8.1.487-11.68 1.352-1.168-1.393-1.788-2.968-1.788-4.511l.015-10.318s-3.605.398-8.337 2.139c-5.386 1.981-7.051 3.266-7.051 3.266.223 4.632 4.35 8.808 10.675 11.587-6.32 2.78-10.445 6.954-10.668 11.583 0 0 1.667 1.286 7.052 3.267 4.73 1.74 8.337 2.138 8.337 2.138l-.016-10.317c0-1.542.618-3.117 1.788-4.509 3.575.865 7.524 1.348 11.668 1.348h.001c4.148 0 8.104-.485 11.681-1.352 1.169 1.393 1.788 2.971 1.788 4.513l-.014 10.317s3.606-.398 8.337-2.138c5.386-1.98 7.052-3.267 7.052-3.267-.225-4.632-4.352-8.807-10.675-11.586M39.99 28.608h-.005l-.118-.003c-3.74 0-6.79-.916-9.028-2.316 2.237-1.403 5.289-2.32 9.037-2.32l.115-.001h.005l.118.001c3.743 0 6.792.916 9.029 2.316-2.237 1.402-5.289 2.32-9.036 2.32"/><path d="M2.882 54.708c-1.812 0-1.844-1.382-1.844-1.915v-2.515c0-.152-.013-.355.31-.355h.937c.304 0 .285.217.285.355v2.515c0 .179.033.66.692.66h1.571c.647 0 .684-.481.684-.66v-2.515c0-.138-.018-.355.285-.355h.943c.343 0 .313.217.313.355v2.515c0 .533-.032 1.915-1.852 1.915"/><path d="M11.562 54.404c-.64-.861-1.553-1.947-2.484-3.093v3.061c0 .134.033.336-.285.336H7.92c-.316 0-.279-.202-.279-.336V50.28c0-.139-.014-.355.28-.355h1.703c.482 0 1.167.97 1.617 1.61.347.488.988 1.222 1.418 1.773v-3.028c0-.139-.02-.355.298-.355h.95c.305 0 .285.216.285.355v4.43h-1.748c-.375 0-.54.024-.881-.305"/><path d="M18.765 53.45c.766 0 .71-.736.71-1.072 0-1.128-.317-1.172-.824-1.172h-2.407v2.244h2.521zm-4 1.26v-4.778h4.224c.258 0 1.987-.03 1.987 1.786 0 1.858.202 2.992-1.95 2.992H16.75l-.494-1.001v1"/><path d="M22.63 49.962h3.89c.33 0 .285.215.285.615 0 .372.05.582-.286.582h-3.073c-.082 0-.36-.045-.36.247 0 .291-.057.406.253.406h2.718s.393.748.437.874c.064.114.057.222-.183.222h-2.814l-.437-.849v1.255c0 .291.26.234.336.234h3.193c.318 0 .291.22.291.582 0 .388.027.602-.291.602h-4.042c-.336 0-.994-.102-.994-1.152v-2.637c0-.272.146-.98 1.077-.98"/><path d="M31.244 51.192H29.35c-.315 0-.304.108-.304.204v.855h1.951c.945 0 .945-.236.945-.483 0-.494-.037-.576-.698-.576m-3.389-1.261h4.258c.57 0 1.399-.006 1.399 1.533 0 1.008-.214 1.058-.67 1.368.767.134.665 1.115.665 1.623 0 .26-.094.254-.172.254h-1.247c-.261 0-.197-.413-.197-.628 0-.59-.33-.563-.457-.563h-1.837c-.176-.305-.519-.99-.519-.99v1.984c0 .172-.172.197-.235.197H27.59c.068 0-.129.012-.129-.16v-4.206c0-.298.21-.412.394-.412"/><path d="M40.336 51.286l-.786 1.432.07.07h1.464l.076-.07c-.052-.109-.684-1.312-.748-1.44l-.076.008m.506-1.323c.31 0 .613.139.944.779.223.455 1.769 3.248 2.09 3.832v.159h-1.609l-.463-.837h-1.957s-.329-.754-.423-.962c-.12.196-.768 1.425-.99 1.799h-1.615v-.102c.33-.62 2.579-4.668 2.579-4.668"/><path d="M48.099 51.192h-1.895c-.316 0-.303.108-.303.204v.855h1.95c.946 0 .946-.236.946-.483 0-.494-.038-.576-.698-.576m-3.39-1.261h4.258c.57 0 1.4-.006 1.4 1.533 0 1.008-.213 1.058-.671 1.368.766.134.664 1.115.664 1.623 0 .26-.094.254-.17.254h-1.248c-.26 0-.197-.413-.197-.628 0-.59-.329-.563-.456-.563H46.45c-.177-.305-.52-.99-.52-.99v1.984c0 .172-.17.197-.233.197h-1.255c.07 0-.126.012-.126-.16v-4.206c0-.298.21-.412.393-.412"/><path d="M54.087 54.708a304.49 304.49 0 0 0-1.794-3.312v2.976c0 .133.018.336-.283.336h-.864c-.323 0-.298-.203-.298-.336v-4.094c0-.138-.018-.348.298-.348h1.49c.221 0 .536-.051.893.66.267.568.831 1.75 1.217 2.375.398-.626.976-1.807 1.242-2.376.348-.71.658-.659.905-.659h1.482c.305 0 .273.21.273.348v4.094c0 .133.043.336-.273.336h-.867c-.317 0-.292-.203-.292-.336v-2.976c-.6 1.075-1.476 2.717-1.807 3.312"/><path d="M63.399 53.491c.717 0 .691-.74.691-1.235 0-.444.101-1.14-.83-1.14h-1.579c-.924 0-.816.696-.816 1.14 0 .495-.044 1.235.672 1.235h1.862zm-2.838 1.23c-1.413 0-1.35-1.516-1.35-2.496 0-.9-.101-2.306 1.667-2.32h3.137c1.773 0 1.658 1.425 1.658 2.32 0 .98.071 2.495-1.362 2.495"/><path d="M68.035 54.708c-1.813 0-1.844-1.382-1.844-1.915v-2.515c0-.152-.012-.355.311-.355h.938c.303 0 .285.217.285.355v2.515c0 .179.032.66.69.66h1.572c.646 0 .684-.481.684-.66v-2.515c0-.138-.02-.355.284-.355h.944c.342 0 .312.217.312.355v2.515c0 .533-.032 1.915-1.851 1.915"/><path d="M76.605 51.192h-1.894c-.316 0-.304.108-.304.204v.855h1.951c.945 0 .945-.236.945-.483 0-.494-.037-.576-.698-.576m-3.39-1.261h4.26c.57 0 1.4-.006 1.4 1.533 0 1.008-.216 1.058-.672 1.368.767.134.666 1.115.666 1.623 0 .26-.095.254-.172.254h-1.248c-.26 0-.197-.413-.197-.628 0-.59-.329-.563-.455-.563h-1.839c-.176-.305-.519-.99-.519-.99v1.984c0 .172-.172.197-.234.197h-1.253c.068 0-.128.012-.128-.16v-4.206c0-.298.21-.412.391-.412"/></g></svg>