<svg width="167" height="64" xmlns="http://www.w3.org/2000/svg" xmlns:xlink="http://www.w3.org/1999/xlink"><defs><path id="a" d="M0 0h165.128v27.468H0z"/><path id="c" d="M0 0h165.128v27.468H0z"/><path id="e" d="M0 0h165.128v27.468H0z"/><path id="g" d="M0 0h165.128v27.468H0z"/><path id="i" d="M0 0h165.128v27.468H0z"/><path id="k" d="M0 0h165.128v27.468H0z"/><path id="m" d="M0 0h165.128v27.468H0z"/><path id="o" d="M0 0h165.128v27.468H0z"/><path id="q" d="M0 0h165.128v27.468H0z"/><path id="s" d="M0 0h165.128v27.468H0z"/><path id="u" d="M0 0h165.128v27.468H0z"/><path id="w" d="M0 0h165.128v27.468H0z"/><path id="y" d="M0 0h165.128v27.468H0z"/><path id="A" d="M0 0h165.128v27.468H0z"/></defs><g fill="none" fill-rule="evenodd" transform="translate(.539 18)"><g><mask id="b" fill="#fff"><use xlink:href="#a"/></mask><path d="M142.403 6.533c.03-.035.072-.028.111-.028.724.012 1.448-.04 2.169.039.716.078 1.449.472 1.637 1.344.022.103.058.203.082.306.024.104.05.176.171.046.405-.44.826-.863 1.335-1.189a5.466 5.466 0 0 1 3.935-.814c1.41.229 2.481.955 3.15 2.24.16.308.175.315.38.042a5.848 5.848 0 0 1 2.178-1.773 6.211 6.211 0 0 1 3.575-.514c1.694.245 2.917 1.111 3.535 2.756.245.65.362 1.322.435 2.007.004.031 0 .066.032.088v10.524c-.724 0-1.45.011-2.173-.008-.584-.018-1.143-.148-1.546-.626a1.84 1.84 0 0 1-.424-1.208c-.01-2.285-.01-4.57-.012-6.855 0-.564-.023-1.128-.152-1.68-.15-.653-.542-1.146-1.37-1.192-1.248-.068-2.117.534-2.771 1.528-.39.592-.584 1.26-.734 1.944a7.29 7.29 0 0 0-.148 1.58c.001 2.099-.002 4.197.006 6.296 0 .19-.056.225-.231.224a340.082 340.082 0 0 0-3.707 0c-.163 0-.226-.023-.226-.211.008-2.89.012-5.78.003-8.668-.002-.582-.048-1.162-.284-1.71-.339-.784-.992-1.045-1.78-.996-.872.054-1.498.525-1.993 1.2-.45.61-.723 1.303-.894 2.041a9.049 9.049 0 0 0-.216 2.088c.004 2.014-.001 4.027.006 6.04 0 .178-.047.217-.22.217a318.61 318.61 0 0 0-3.706 0c-.166 0-.227-.029-.226-.214.007-1.86.004-3.72.006-5.58 0-.066-.017-.133.02-.195.028.025.028.058.028.093 0 1.904 0 3.81-.003 5.714-.002.027.042.002.017.006-.007 0-.01-.002-.011-.01-.006-.059-.002-.118-.002-.177V6.77c0-.08-.019-.16.018-.235" fill="#0093CF" fill-rule="nonzero" mask="url(#b)"/></g><g><mask id="d" fill="#fff"><use xlink:href="#c"/></mask><path d="M67.654 0c.299.096.606.168.883.33a2.55 2.55 0 0 1 1.22 2.609 2.532 2.532 0 0 1-1.971 2.048c-1.4.285-2.719-.593-2.987-2.032a2.501 2.501 0 0 1 1.99-2.917c.038-.008.08 0 .108-.038h.757z" fill="#00327B" fill-rule="nonzero" mask="url(#d)"/></g><g><mask id="f" fill="#fff"><use xlink:href="#e"/></mask><path d="M64.042 21.609c-1.369-.032-2.696.04-4.023-.04-.742-.045-1.304-.412-1.694-1.037-.427-.686-.771-1.417-1.154-2.128a179.58 179.58 0 0 1-1.4-2.65.71.71 0 0 0-.592-.404 3.814 3.814 0 0 0-.577-.035c-.305.008-.267-.047-.268.259v5.36c0 .166-.006.333.002.499.007.123-.023.172-.163.172a546.308 546.308 0 0 0-4.045 0c-.125 0-.163-.036-.157-.156.008-.192.003-.385.003-.579V.902c0-.298-.03-.26.251-.257.79.008 1.58-.029 2.37.028.908.067 1.45.475 1.654 1.26.067.264.084.537.085.81v8.53c0 .269 0 .272.28.268.226-.001.451-.009.677-.024.35-.011.67-.2.85-.501.94-1.475 1.896-2.94 2.842-4.41.066-.102.129-.146.252-.145 1.54.003 3.083.002 4.624.002.031 0 .063.004.126.006l-.339.512c-1.236 1.837-2.47 3.675-3.707 5.51a5.512 5.512 0 0 1-.665.817c-.05.05-.102.088-.028.16.568.555.871 1.28 1.218 1.97.96 1.907 2.096 3.712 3.196 5.537l.382.634" fill="#00327B" fill-rule="nonzero" mask="url(#f)"/></g><g><mask id="h" fill="#fff"><use xlink:href="#g"/></mask><path d="M76.319 8.175c.25-.235.471-.482.728-.693 1.04-.859 2.24-1.29 3.58-1.348.922-.04 1.83.042 2.7.369 1.39.523 2.254 1.538 2.698 2.933a7.84 7.84 0 0 1 .343 2.372c.005 1.408 0 2.816.003 4.226.003 1.773.011 3.546.016 5.32 0 .287.03.25-.26.247-.736-.008-1.474.028-2.211-.026-1.147-.083-1.822-.766-1.871-1.919-.048-1.115-.016-2.23-.019-3.347-.005-1.256.005-2.51-.004-3.766a4.597 4.597 0 0 0-.129-1.124c-.212-.825-.736-1.225-1.589-1.254-1.692-.055-3.21.92-3.715 2.926a6.087 6.087 0 0 0-.183 1.477c-.005 2.266-.005 4.53.001 6.796 0 .187-.035.245-.235.244a239.7 239.7 0 0 0-3.886-.001c-.17 0-.205-.05-.205-.21.003-4.406 0-8.81-.002-13.215 0-.525-.005-1.05-.007-1.574 0-.08-.017-.156.113-.152.77.022 1.543-.044 2.31.035.843.09 1.578.518 1.775 1.544.008.043.029.084.049.14" fill="#00327B" fill-rule="nonzero" mask="url(#h)"/></g><g><mask id="j" fill="#fff"><use xlink:href="#i"/></mask><path d="M123.831 10.47c0 .359-.005.717.004 1.076.002.125-.026.176-.164.173-.69-.007-1.382.015-2.073-.008-.742-.024-1.308-.405-1.523-1.197-.085-.31-.362-.447-.635-.544-1.447-.505-3.209-.04-4.192 1.143a4.179 4.179 0 0 0-.85 1.739 4.965 4.965 0 0 0-.052 2.13c.252 1.272.943 2.229 2.125 2.797.886.426 1.83.539 2.788.386.957-.152 1.812-.574 2.59-1.155.332-.25.653-.512.927-.827.072-.082.108-.098.172.008.55.918 1.105 1.834 1.659 2.751.065.107.035.184-.047.276-.515.588-1.13 1.054-1.79 1.463a8.267 8.267 0 0 1-2.336.988 9.29 9.29 0 0 1-3.473.187c-1.244-.156-2.399-.55-3.447-1.232a7.31 7.31 0 0 1-2.934-3.663 8.185 8.185 0 0 1-.508-3.131c.064-2.091.776-3.917 2.286-5.396a7.654 7.654 0 0 1 3.072-1.827 9.415 9.415 0 0 1 2.613-.439 8.317 8.317 0 0 1 3.506.625c.825.347 1.552.837 1.99 1.66.205.388.303.8.296 1.24-.005.259-.001.518-.001.777h-.003z" fill="#0093CF" fill-rule="nonzero" mask="url(#j)"/></g><g><mask id="l" fill="#fff"><use xlink:href="#k"/></mask><path d="M65.282 14.035V6.642c0-.087-.03-.187.128-.182.79.02 1.581-.035 2.369.031 1.05.089 1.69.735 1.795 1.788.02.191.028.382.028.576 0 4.177-.001 8.353.004 12.531 0 .174-.038.222-.217.22-1.295-.009-2.59-.01-3.885 0-.184.002-.214-.053-.213-.222.005-2.45.004-4.9.004-7.35h-.013" fill="#00327B" fill-rule="nonzero" mask="url(#l)"/></g><g><mask id="n" fill="#fff"><use xlink:href="#m"/></mask><path d="M106.867 21.768c-1.335.049-2.53-1.095-2.525-2.521.005-1.42 1.176-2.514 2.512-2.523 1.383-.01 2.546 1.17 2.542 2.53-.004 1.35-1.139 2.56-2.53 2.514" fill="#0093CF" fill-rule="nonzero" mask="url(#n)"/></g><g><mask id="p" fill="#fff"><use xlink:href="#o"/></mask><path d="M102.639 20.848c-.041-.116-.022-.236-.022-.354V6.73c0-.274 0-.274-.28-.274h-1.894c.056-.056.126-.031.19-.031.617-.002 1.235.002 1.852-.005.133-.001.182.025.182.172-.006 4.66-.006 9.319-.01 13.98 0 .092-.011.184-.018.276" fill="#002F5F" fill-rule="nonzero" mask="url(#p)"/></g><g><mask id="r" fill="#fff"><use xlink:href="#q"/></mask><path d="M142.403 6.533v15.034c-.058-.105-.038-.178-.038-.248l-.002-5.437c0-.088-.004-.174-.006-.26l-.004-5.38c0-1.143-.001-2.287.002-3.428 0-.093-.038-.199.048-.28" fill="#0085A7" fill-rule="nonzero" mask="url(#r)"/></g><g><mask id="t" fill="#fff"><use xlink:href="#s"/></mask><path d="M9.742 17.036c-.507.646-1.21.919-2.004.935-1.19.024-2.378.004-3.567.01-.128 0-.152-.044-.15-.159.004-.717.002-1.435.002-2.152h.006c0-.685-.014-1.37.003-2.054.021-.853.482-1.289 1.33-1.289.75 0 1.502-.014 2.252.005.962.023 1.778.354 2.306 1.208.619.998.537 2.585-.178 3.496m-5.72-9.914h.006c0-.571-.013-1.143.003-1.712.026-.83.41-1.263 1.237-1.306.8-.042 1.606-.081 2.403.038.994.148 1.644.77 1.835 1.752.167.862.055 1.682-.5 2.393-.444.57-1.068.79-1.767.799-1.015.012-2.031 0-3.047.007-.143 0-.175-.042-.173-.178.008-.598.004-1.195.004-1.792m7.816 3.634c-.147-.079-.289-.166-.447-.257.108-.093.197-.173.289-.248.337-.282.657-.58.924-.93.8-1.057 1.108-2.258 1.036-3.567-.103-1.88-.977-3.284-2.615-4.204C9.876.904 8.617.672 7.315.659a330.797 330.797 0 0 0-5.14-.001C1.478.661.909.952.465 1.493c-.245.3-.361.654-.465 1.018v19.016c.072-.002.146-.006.22-.006h7.132a9.259 9.259 0 0 0 3.011-.478c1.434-.491 2.616-1.315 3.369-2.662.745-1.336.91-2.771.596-4.255-.316-1.492-1.122-2.641-2.487-3.37" fill="#00327B" fill-rule="nonzero" mask="url(#t)"/></g><g><mask id="v" fill="#fff"><use xlink:href="#u"/></mask><path d="M98.105 15.713c-.413 1.12-1.324 1.764-2.523 1.78-1.5.02-2.544-.712-3.014-2.137-.413-1.25-.43-2.508.058-3.74.438-1.105 1.285-1.668 2.47-1.707.622-.022 1.234.04 1.801.326.782.397 1.165 1.09 1.365 1.905.123.5.158 1.008.162 1.565-.009.655-.075 1.345-.319 2.008m4.348-9.278c-.478.01-.957.002-1.435.005-.191.002-.384-.02-.575.015-.791.012-1.336.397-1.667 1.113a5.273 5.273 0 0 0-.95-.702c-1.316-.735-2.737-.91-4.2-.71-2.548.353-4.28 1.783-5.19 4.168-.747 1.957-.768 3.969-.208 5.979.38 1.365 1.086 2.543 2.18 3.464 1.362 1.146 2.957 1.587 4.713 1.503 1.155-.055 2.216-.377 3.12-1.129.023-.018.046-.052.094-.028.02.266.008.536-.021.804-.113 1.048-.606 1.842-1.582 2.287-1.062.485-2.176.46-3.3.295-.624-.092-1.219-.299-1.822-.474-.737-.214-1.234.021-1.573.705-.032.065-.065.13-.093.198-.257.645-.508 1.293-.771 1.935-.055.134-.028.188.098.256 1.112.6 2.298.98 3.54 1.193.357.06.716.105 1.075.156h1.634c.026-.04.07-.032.108-.034a9.004 9.004 0 0 0 1.547-.25c1.348-.335 2.572-.91 3.57-1.896 1.237-1.218 1.801-2.73 1.894-4.44-.006-.079-.003-.16-.003-.239V6.746c0-.04-.005-.08 0-.12.024-.146-.03-.194-.183-.19" fill="#00327B" fill-rule="nonzero" mask="url(#v)"/></g><g><mask id="x" fill="#fff"><use xlink:href="#w"/></mask><path d="M136.593 13.879c-.002 1.124-.217 2.041-.798 2.849a3.269 3.269 0 0 1-1.954 1.309c-.825.195-1.637.149-2.409-.193-.78-.346-1.34-.938-1.71-1.708a4.799 4.799 0 0 1-.461-2.289c.044-1.166.365-2.24 1.242-3.07.788-.747 1.745-1.02 2.809-.907 1.524.16 2.488 1.044 3.012 2.438.205.545.297 1.125.268 1.57m4.03-1.912a7.264 7.264 0 0 0-.69-1.82 7.245 7.245 0 0 0-2.887-2.958c-.984-.553-2.042-.865-3.165-.987a9.186 9.186 0 0 0-2.281.038c-.81.112-1.599.35-2.336.706-1.26.611-2.287 1.493-3.035 2.68-.843 1.335-1.232 2.802-1.208 4.38.008.392.016.779.068 1.171a7.94 7.94 0 0 0 .737 2.467 7.194 7.194 0 0 0 2.445 2.83c1.15.786 2.435 1.208 3.816 1.337a8.637 8.637 0 0 0 3.996-.546 7.296 7.296 0 0 0 3.13-2.316 7.408 7.408 0 0 0 1.284-2.488c.17-.59.28-1.196.33-1.808.074-.9.005-1.807-.204-2.685" fill="#0093CF" fill-rule="nonzero" mask="url(#x)"/></g><g><mask id="z" fill="#fff"><use xlink:href="#y"/></mask><path d="M44.191 14.019c-.006 1.04-.233 2.018-.898 2.845-.762.951-1.78 1.334-2.982 1.284-1.694-.07-2.987-1.267-3.344-3.04-.255-1.27-.14-2.502.553-3.627.765-1.243 2.052-1.808 3.494-1.607 1.605.222 2.548 1.217 2.998 2.728.137.461.188.936.179 1.417M44.249 7c-2.068-1.014-4.238-1.12-6.422-.421-2.24.717-3.808 2.196-4.67 4.392-.6 1.536-.7 3.125-.38 4.733.367 1.86 1.282 3.398 2.8 4.55 1.454 1.103 3.119 1.567 4.925 1.58a8.392 8.392 0 0 0 2.031-.227c2.302-.558 4.041-1.854 5.095-3.99.854-1.732 1.02-3.566.615-5.445-.509-2.353-1.83-4.113-3.994-5.172" fill="#00327B" fill-rule="nonzero" mask="url(#z)"/></g><g><mask id="B" fill="#fff"><use xlink:href="#A"/></mask><path d="M26.693 16.364c-.587 1.087-1.537 1.667-2.77 1.775-1.988.175-3.442-1.09-3.866-2.923-.032-.141-.054-.286-.079-.43a4.176 4.176 0 0 1-.051-.794c.003-1.069.248-2.065.945-2.904.836-1.011 1.941-1.381 3.214-1.213 1.437.189 2.392 1.029 2.873 2.37.502 1.4.445 2.798-.267 4.119m.66-9.349c-1.858-.93-3.827-1.095-5.832-.617-2.388.572-4.136 1.975-5.15 4.23-.675 1.496-.827 3.072-.587 4.688.262 1.78 1.026 3.307 2.365 4.52 1.537 1.396 3.383 1.98 5.43 1.997.791.01 1.58-.093 2.342-.307 2.212-.63 3.86-1.952 4.84-4.048.776-1.657.934-3.405.574-5.188-.482-2.387-1.794-4.178-3.983-5.275" fill="#00327B" fill-rule="nonzero" mask="url(#B)"/></g></g></svg>