<svg width="166" height="64" xmlns="http://www.w3.org/2000/svg"><g fill="none"><path d="M43.89 13.46a6.06 6.06 0 0 0-6.763 1.613L23.903 29.618 10.691 15.073A6.133 6.133 0 0 0 0 18.479v27.248a6.06 6.06 0 0 0 3.927 5.697c.715.257 1.471.38 2.23.364a6.06 6.06 0 0 0 4.534-2.024l5.14-5.673 3.636 5.357a5.333 5.333 0 0 0 8.788 0l3.636-5.357 5.14 5.673a6.145 6.145 0 0 0 10.69-4.037V19.194a6.06 6.06 0 0 0-3.83-5.734h-.001zM7.928 47.304a2.424 2.424 0 0 1-4.194-1.576V26.564l9.928 14.315-5.734 6.424v.001zM4.145 20.636a2.521 2.521 0 0 1-.412-1.406 2.424 2.424 0 0 1 1.54-2.29c.294-.112.606-.17.92-.17a2.277 2.277 0 0 1 1.746.8l13.455 14.824-5.164 5.709L4.145 20.636zm21.091 26.8a1.612 1.612 0 0 1-2.642 0l-4.182-6.06 5.515-6.06 5.515 6.06-4.206 6.06zM31.6 38.2l-5.176-5.806 13.479-14.812a2.424 2.424 0 0 1 4.206 1.624 2.51 2.51 0 0 1-.473 1.394L31.6 38.2zm12.497 7.527a2.424 2.424 0 0 1-4.206 1.625l-5.721-6.473 9.927-14.424v19.272z" fill="#29DC8F"/><path d="M85.818 33v8.848H82.06v-7.635c0-2.06-.97-3.152-2.788-3.152-1.575 0-3.03 1.091-3.03 3.152v7.636h-3.636v-7.636c0-2.06-.97-3.152-2.788-3.152-1.576 0-3.03 1.091-3.03 3.152v7.636H63.03V27.908h3.636v1.698c1.091-1.576 2.546-2.06 4.243-2.06 2.06 0 3.757.848 4.606 2.423 1.09-1.818 2.909-2.424 4.727-2.424 3.394 0 5.576 2.182 5.576 5.455m6.424 1.818c0 2.303 1.576 3.879 3.758 3.879s3.757-1.576 3.757-3.88c0-2.302-1.575-3.878-3.757-3.878-2.182.121-3.758 1.697-3.758 3.879m11.394 0c0 4.242-3.273 7.273-7.636 7.273-4.364 0-7.637-3.152-7.637-7.273 0-4.243 3.273-7.273 7.637-7.273 4.363 0 7.636 3.152 7.636 7.273M119.515 33v8.848h-3.758v-7.635c0-2.06-.97-3.152-2.788-3.152-1.575 0-3.03 1.091-3.03 3.152v7.636h-3.757V27.908h3.636v1.698c1.09-1.576 2.545-2.06 4.242-2.06 3.152 0 5.455 2.18 5.455 5.454m6.425.606h6.18c-.363-1.818-1.454-2.788-3.03-2.788-1.818 0-2.908.97-3.15 2.788M136 34.818c0 .485 0 .97-.122 1.212h-9.938c.364 2.06 1.818 2.91 3.636 2.91 1.213 0 2.546-.486 3.516-1.334l2.181 2.424c-1.575 1.455-3.636 2.06-6.06 2.06-4.364 0-7.273-2.909-7.273-7.272 0-4.364 2.91-7.273 7.152-7.273 4.12 0 6.909 3.03 6.909 7.273M144 30.697c-1.455 0-2.182.484-2.182 1.212 0 .848.97.97 2.303 1.212l1.212.242c3.03.485 4.727 1.818 4.727 4.122 0 2.909-2.424 4.727-6.424 4.727-1.94 0-4.485-.364-6.303-1.697l1.455-2.788c1.212.848 2.666 1.333 4.848 1.333 1.818 0 2.546-.485 2.546-1.333 0-.727-.728-1.091-2.304-1.333l-1.09-.122c-3.273-.484-4.849-1.818-4.849-4.242 0-2.91 2.182-4.606 5.94-4.606 2.181 0 4 .364 5.939 1.333l-1.333 2.91c-1.091-.364-2.91-.97-4.485-.97m11.636 2.909h6.182c-.364-1.818-1.455-2.788-3.03-2.788-1.697 0-2.788.97-3.152 2.788m10.06 1.212c0 .485 0 .97-.12 1.212h-9.94c.364 2.06 1.818 2.91 3.636 2.91 1.213 0 2.546-.486 3.516-1.334l2.181 2.424c-1.575 1.455-3.636 2.06-6.06 2.06-4.364 0-7.273-2.909-7.273-7.272 0-4.364 3.03-7.273 7.273-7.273 4 0 6.788 3.03 6.788 7.273" fill="#3E83FF"/></g></svg>