<svg width="104" height="72" xmlns="http://www.w3.org/2000/svg"><g fill="none" fill-rule="evenodd"><path d="M42.71 7.992c3.317-3.43 7.916-5.58 13.005-5.58 6.786 0 12.666 3.77 15.833 9.387a22.186 22.186 0 0 1 8.934-1.885c12.213 0 22.127 9.99 22.127 22.316 0 12.327-9.914 22.317-22.127 22.317-1.508 0-2.94-.151-4.373-.453-2.752 4.938-8.067 8.293-14.099 8.293-2.525 0-4.938-.603-7.086-1.62C52.096 67.362 45.574 72 37.96 72c-7.954 0-14.701-5.014-17.302-12.063-1.131.226-2.3.377-3.506.377C7.69 60.314.038 52.55.038 43.012c0-6.409 3.43-11.988 8.557-15.004-1.056-2.412-1.621-5.089-1.621-7.916C6.974 9.085 15.908.188 26.915.188c6.409 0 12.138 3.054 15.795 7.804z" fill="#00A1E0"/><g transform="translate(14.702 24.88)" fill="#FFF"><path d="M.15 12.553c-.075.15.038.188.038.226.189.15.377.226.604.34 1.055.565 2.035.716 3.053.716 2.111 0 3.43-1.131 3.43-2.903v-.038c0-1.658-1.47-2.262-2.865-2.714l-.188-.075c-1.056-.34-1.96-.641-1.96-1.32v-.037c0-.603.528-1.018 1.357-1.018.905 0 1.998.301 2.676.678 0 0 .189.113.264-.075.038-.113.377-1.056.415-1.169.038-.113-.038-.188-.113-.226-.792-.49-1.885-.791-3.016-.791h-.226c-1.923 0-3.28 1.168-3.28 2.827v.038c0 1.771 1.47 2.337 2.865 2.714l.226.075c1.018.302 1.885.565 1.885 1.282v.037c0 .641-.565 1.131-1.47 1.131-.34 0-1.47 0-2.714-.791-.15-.076-.226-.151-.34-.226-.075-.038-.226-.114-.263.113L.15 12.553zm30.836 0c-.075.15.038.188.038.226.189.15.377.226.603.34 1.056.565 2.036.716 3.054.716 2.11 0 3.43-1.131 3.43-2.903v-.038c0-1.658-1.47-2.262-2.865-2.714l-.188-.075c-1.056-.34-1.96-.641-1.96-1.32v-.037c0-.603.527-1.018 1.356-1.018.905 0 1.998.301 2.677.678 0 0 .188.113.264-.075.037-.113.377-1.056.414-1.169.038-.113-.037-.188-.113-.226-.791-.49-1.884-.791-3.015-.791h-.227c-1.922 0-3.28 1.168-3.28 2.827v.038c0 1.771 1.471 2.337 2.866 2.714l.226.075c1.018.302 1.885.565 1.885 1.282v.037c0 .641-.566 1.131-1.47 1.131-.34 0-1.47 0-2.715-.791-.15-.076-.226-.151-.339-.226-.037-.038-.226-.076-.264.113l-.377 1.206z"/><path d="M53.755 7.125c-.189-.566-.452-1.094-.792-1.508-.377-.415-.829-.792-1.357-1.018-.527-.264-1.168-.377-1.885-.377-.716 0-1.357.113-1.884.377-.528.264-.98.603-1.357 1.018-.34.414-.641.942-.792 1.508-.189.565-.264 1.206-.264 1.884 0 .679.075 1.32.264 1.885.188.566.452 1.093.792 1.508.377.415.829.792 1.357 1.018a4.794 4.794 0 0 0 1.884.377c.717 0 1.358-.113 1.885-.377.528-.226.98-.603 1.357-1.018.34-.415.641-.942.792-1.508.188-.565.264-1.206.264-1.885 0-.678-.076-1.319-.264-1.884m-1.734 1.884c0 1.018-.189 1.81-.566 2.375-.376.566-.942.83-1.696.83-.791 0-1.32-.264-1.696-.83-.377-.565-.566-1.357-.566-2.375 0-1.017.189-1.809.566-2.374.377-.566.905-.83 1.696-.83.792 0 1.357.264 1.696.83.377.565.566 1.357.566 2.374" fill-rule="nonzero"/><path d="M68.193 11.95c-.076-.189-.227-.113-.227-.113a2.995 2.995 0 0 1-.829.226 7.413 7.413 0 0 1-.98.075c-.867 0-1.508-.264-1.998-.754s-.754-1.32-.754-2.412c0-.98.226-1.734.679-2.3.414-.565 1.093-.867 1.96-.867.716 0 1.282.076 1.847.264 0 0 .15.076.189-.113.15-.415.263-.716.414-1.206.038-.151-.075-.189-.113-.189a10.185 10.185 0 0 0-1.168-.301c-.377-.076-.83-.076-1.32-.076-.754 0-1.395.113-1.96.377s-1.056.603-1.432 1.018a4.27 4.27 0 0 0-.867 1.508 5.986 5.986 0 0 0-.302 1.885c0 1.47.377 2.638 1.169 3.505.791.868 1.96 1.32 3.468 1.32a7.14 7.14 0 0 0 2.488-.452s.113-.076.075-.227l-.34-1.168zm8.971-5.165c-.15-.565-.527-1.13-.754-1.394-.376-.415-.753-.717-1.13-.867-.49-.227-1.056-.34-1.697-.34-.754 0-1.432.113-1.96.377-.565.264-1.018.603-1.357 1.056-.377.452-.64.942-.792 1.545-.188.603-.264 1.207-.264 1.885 0 .679.076 1.32.264 1.885.189.565.453 1.093.867 1.508.377.414.905.754 1.508.98.603.226 1.32.34 2.149.34 1.734 0 2.639-.378 2.978-.604.075-.038.113-.113.038-.302l-.377-1.093c-.076-.15-.227-.113-.227-.113-.414.151-1.017.453-2.45.453-.905 0-1.62-.264-2.035-.717-.453-.452-.641-1.093-.679-1.96h5.956s.15 0 .189-.15c-.038 0 .15-1.132-.227-2.489zM71.246 8.03c.075-.565.226-1.017.49-1.394.377-.566.905-.867 1.696-.867.792 0 1.282.301 1.66.867.263.377.338.867.376 1.394h-4.222zM29.554 6.785c-.15-.565-.528-1.13-.754-1.394-.377-.415-.754-.717-1.13-.867-.49-.227-1.056-.34-1.697-.34-.754 0-1.433.113-1.96.377-.566.264-1.018.603-1.358 1.056-.376.452-.64.942-.791 1.545-.189.603-.264 1.207-.264 1.885 0 .679.075 1.32.264 1.885.188.565.452 1.093.867 1.508.377.414.905.754 1.508.98.603.226 1.32.34 2.148.34 1.734 0 2.64-.378 2.978-.604.076-.038.114-.113.038-.302l-.377-1.093c-.075-.15-.226-.113-.226-.113-.415.151-1.018.453-2.45.453-.905 0-1.621-.264-2.036-.717-.452-.452-.64-1.093-.678-1.96h5.956s.15 0 .188-.15c-.038 0 .15-1.132-.226-2.489zM23.636 8.03c.075-.565.226-1.017.49-1.394.377-.566.904-.867 1.696-.867.792 0 1.282.301 1.659.867.226.377.339.867.377 1.394h-4.222z"/><path d="M13.156 7.728c-.226 0-.565-.038-.942-.038-.528 0-1.018.075-1.47.189a3.726 3.726 0 0 0-1.245.565c-.376.264-.64.603-.867.98-.226.377-.301.867-.301 1.357 0 .528.075.98.264 1.357.188.377.452.679.791.943.34.226.754.414 1.207.527.452.113.98.151 1.583.151s1.206-.038 1.81-.15c.565-.114 1.281-.227 1.507-.302.189-.038.415-.113.415-.113.15-.038.15-.189.15-.189V7.577c0-1.206-.3-2.073-.942-2.639-.64-.528-1.545-.83-2.714-.83-.452 0-1.168.076-1.583.152 0 0-1.282.264-1.847.678 0 0-.113.076-.038.226l.415 1.131c.037.151.188.113.188.113s.038 0 .113-.037c1.131-.603 2.601-.603 2.601-.603.641 0 1.131.113 1.47.377.34.263.49.64.49 1.432v.264c-.603-.038-1.055-.113-1.055-.113zm-2.375 4.184c-.226-.188-.264-.226-.34-.34-.112-.188-.188-.452-.188-.79 0-.529.189-.906.528-1.17 0 0 .528-.452 1.734-.414.867 0 1.621.15 1.621.15v2.715s-.754.15-1.62.226c-1.207.038-1.735-.377-1.735-.377z" fill-rule="nonzero"/><path d="M61.106 4.674c.037-.15-.038-.188-.076-.226a4.094 4.094 0 0 0-.98-.15c-.754-.038-1.168.075-1.545.263-.377.151-.792.453-1.018.754V4.6c0-.113-.075-.189-.189-.189h-1.507c-.114 0-.189.076-.189.189v8.859c0 .113.075.188.189.188h1.545c.113 0 .189-.075.189-.188V9.009c0-.603.075-1.206.188-1.545.113-.377.302-.679.528-.867.226-.226.452-.377.716-.452.264-.076.566-.114.792-.114.301 0 .64.076.64.076a.255.255 0 0 0 .227-.151c.15-.302.452-1.13.49-1.282zM46.442.565a2.824 2.824 0 0 0-.603-.15 4.705 4.705 0 0 0-.792-.076c-1.093 0-1.922.302-2.526.905-.603.603-.98 1.508-1.206 2.714l-.075.415h-1.357s-.151 0-.189.188l-.226 1.244c0 .113.038.189.189.189h1.319l-1.32 7.426a14.751 14.751 0 0 1-.339 1.47c-.113.377-.264.64-.414.83-.151.188-.302.339-.528.414a2.04 2.04 0 0 1-.716.113c-.151 0-.34-.038-.49-.038-.151-.037-.227-.075-.34-.113 0 0-.15-.075-.226.113-.038.114-.415 1.094-.452 1.207-.038.113 0 .226.075.226.189.075.302.113.528.15.34.076.603.076.867.076.565 0 1.055-.075 1.47-.226a2.72 2.72 0 0 0 1.093-.754c.34-.377.566-.792.754-1.32.189-.527.377-1.206.528-1.997l1.357-7.577h1.96s.151 0 .189-.189l.226-1.244c0-.113-.038-.188-.189-.188h-1.884c0-.038.113-.716.301-1.357.076-.264.264-.49.415-.641.15-.15.301-.264.49-.302.188-.075.415-.075.64-.075.19 0 .34.038.49.038.19.037.265.075.302.075.189.075.227 0 .264-.075L46.48.792c.113-.151 0-.189-.038-.227zM19.866 13.42c0 .113-.075.188-.189.188h-1.583c-.113 0-.188-.075-.188-.188V.754c0-.113.075-.189.188-.189h1.583c.114 0 .189.076.189.189V13.42z"/></g></g></svg>